<svg xmlns="http://www.w3.org/2000/svg" width="335.06" height="313.088" viewBox="0 0 335.06 313.088">
  <g id="Group_771" data-name="Group 771" transform="translate(-59.228 -20.33)">
    <path id="Path_3998" data-name="Path 3998" d="M366.646,246.431C339.093,258.6,322.79,280.3,309.588,309.574c0,.115-.115.115-.115.23a2.512,2.512,0,0,1-.344.574,25.71,25.71,0,0,1-11.251,12.284c-11.366,6.2-27.094,4.363-38,1.722a102.111,102.111,0,0,1-12.514-3.789c-.23-.115-.459-.115-.689-.23-23.42-7.118-15.384,15.5-53.155,19.861a72.416,72.416,0,0,1-10.1.344h0c-19.287-.8-42.134-8.955-59.814-16.647-9.873-4.363-18.254-8.5-23.306-11.251a27.984,27.984,0,0,1-11.94-11.71c-10.218-18.828-2.755-43.167,3.559-57.4a31.657,31.657,0,0,0-1.148-27.668c-4.937-9.3-13.777-19.747-22.617-30.309s-9.184-39.493-8.84-45.578c11.366-190.348,279.9-91.615,319.046-45.348C406.254,127.607,394.429,234.032,366.646,246.431Z" transform="translate(0 -7.197)" fill="#ffd768"/>
    <path id="Path_3999" data-name="Path 3999" d="M79.473,187.852c20.18,8.913,32.12,24.8,41.79,46.246,0,.084.084.084.084.168a1.839,1.839,0,0,0,.252.42,18.83,18.83,0,0,0,8.24,9c8.324,4.541,19.844,3.2,27.832,1.261a74.782,74.782,0,0,0,9.165-2.775c.168-.084.336-.084.5-.168,17.153-5.213,11.267,11.351,38.931,14.546a53.039,53.039,0,0,0,7.4.252h0c14.126-.589,30.859-6.559,43.808-12.192,7.231-3.2,13.369-6.222,17.069-8.24a20.5,20.5,0,0,0,8.745-8.577c7.483-13.79,2.018-31.615-2.607-42.042a23.186,23.186,0,0,1,.841-20.264c3.616-6.811,10.09-14.462,16.564-22.2s6.727-28.925,6.474-33.381C296.24-29.5,99.569,42.807,70.9,76.693,50.464,100.825,59.124,178.771,79.473,187.852Z" transform="translate(65.059 2.594) rotate(11)" fill="#ffeebe"/>
    <g id="_3934978" data-name="3934978" transform="translate(175.778 89.681)">
      <g id="Group_772" data-name="Group 772" transform="translate(-108.99 -257.882)">
        <path id="Rectangle_203" d="M266.637,397.7h71.725A17.564,17.564,0,0,1,356,415.337V581.52a17.564,17.564,0,0,1-17.637,17.637H266.637A17.564,17.564,0,0,1,249,581.52V415.337A17.564,17.564,0,0,1,266.637,397.7Z" transform="translate(-134 -162.157)" fill="#2b2b2b"/>
        <path id="Path_91" d="M348.118,410.686V580a10.455,10.455,0,0,1-10.386,10.386H262.086A10.455,10.455,0,0,1,251.7,580V410.686A10.455,10.455,0,0,1,262.086,400.3h75.645A10.329,10.329,0,0,1,348.118,410.686Z" transform="translate(-131.409 -159.662)" fill="#fff"/>
        <path id="Rectangle_204" d="M270.8,398.3h30.963a5.188,5.188,0,0,1,5.1,5.1h0a5.188,5.188,0,0,1-5.1,5.1H270.8a5.188,5.188,0,0,1-5.1-5.1h0A5.188,5.188,0,0,1,270.8,398.3Z" transform="translate(-117.974 -161.582)" fill="#2b2b2b"/>
      </g>
      <g id="Group_774" data-name="Group 774">
        <path id="Path_194" data-name="Path 194" d="M2.35,0H23.488a2.35,2.35,0,0,1,2.35,2.35V23.488a2.35,2.35,0,0,1-2.35,2.35H2.35A2.35,2.35,0,0,1,0,23.488V2.35A2.35,2.35,0,0,1,2.35,0Z" transform="translate(20.266 33.079)" fill="#ffbc01"/>
        <rect id="Rectangle_203-2" data-name="Rectangle 203" width="25.838" height="25.838" rx="2.35" transform="translate(20.266 64.839)" fill="#ffbc01"/>
        <path id="Path_3972" data-name="Path 3972" d="M2.1,0H78.707a2.1,2.1,0,0,1,2.1,2.1V23.738a2.1,2.1,0,0,1-2.1,2.1H2.1a2.1,2.1,0,0,1-2.1-2.1V2.1A2.1,2.1,0,0,1,2.1,0Z" transform="translate(61.643 33.079)" fill="#ffd768"/>
        <rect id="Rectangle_206" data-name="Rectangle 206" width="45.846" height="2.273" rx="0.7" transform="translate(92.058 40.81)" fill="#fff"/>
        <rect id="Rectangle_207" data-name="Rectangle 207" width="45.846" height="2.273" rx="0.7" transform="translate(92.058 45.789)" fill="#fff"/>
        <rect id="Rectangle_208" data-name="Rectangle 208" width="45.846" height="2.273" rx="0.7" transform="translate(92.058 50.335)" fill="#fff"/>
        <path id="Path_141" data-name="Path 141" d="M361.987,167.435h0a9.277,9.277,0,0,1-9.277-9.277h0a9.277,9.277,0,0,1,9.277-9.277h0a9.277,9.277,0,0,1,9.277,9.277h0A9.277,9.277,0,0,1,361.987,167.435Z" transform="translate(-286.181 -112.523)" fill="#ffbc01"/>
        <path id="Path_142" data-name="Path 142" d="M361.166,161.321v1.423h-1.794V161.4a7.5,7.5,0,0,1-3.263-.912l.99-2.18a6.184,6.184,0,0,0,2.938.835c.85,0,1.16-.17,1.16-.479,0-1.129-4.932-.263-4.9-3.587,0-1.438,1.067-2.644,3.092-2.922V150.76h1.794v1.361a6.665,6.665,0,0,1,2.582.758l-.928,2.18a5.5,5.5,0,0,0-2.474-.68c-.881,0-1.16.247-1.16.557,0,1.067,4.933.216,4.9,3.51C364.151,159.806,363.145,161,361.166,161.321Z" transform="translate(-284.324 -111.496)" fill="#fff"/>
        <path id="Path_193" data-name="Path 193" d="M2.1,0H78.707a2.1,2.1,0,0,1,2.1,2.1V23.738a2.1,2.1,0,0,1-2.1,2.1H2.1a2.1,2.1,0,0,1-2.1-2.1V2.1A2.1,2.1,0,0,1,2.1,0Z" transform="translate(61.643 64.839)" fill="#ffd768"/>
        <rect id="Rectangle_210" data-name="Rectangle 210" width="45.846" height="2.273" rx="0.7" transform="translate(92.058 72.554)" fill="#fff"/>
        <rect id="Rectangle_211" data-name="Rectangle 211" width="45.846" height="2.273" rx="0.7" transform="translate(92.058 77.549)" fill="#fff"/>
        <rect id="Rectangle_212" data-name="Rectangle 212" width="45.846" height="2.273" rx="0.7" transform="translate(92.058 82.094)" fill="#fff"/>
        <path id="Path_143" data-name="Path 143" d="M361.987,187.975h0a9.277,9.277,0,0,1-9.277-9.277h0a9.277,9.277,0,0,1,9.277-9.277h0a9.277,9.277,0,0,1,9.277,9.277h0a9.277,9.277,0,0,1-9.277,9.277Z" transform="translate(-286.181 -101.303)" fill="#ffbc01"/>
        <path id="Path_144" data-name="Path 144" d="M358.569,175.23a1.794,1.794,0,1,1,1.794,1.794A1.794,1.794,0,0,1,358.569,175.23Zm-2.458.4a4.206,4.206,0,0,0,.588,2.258c.186.325.387.634.557.959l3.092,5.536,2.01-3.634c.541-.959,1.113-1.9,1.67-2.845a4.253,4.253,0,1,0-7.917-2.273Z" transform="translate(-284.324 -100.17)" fill="#fff"/>
      </g>
      <g id="OBJECTS" transform="translate(-649.79 -148.932)">
        <path id="Path_4099" data-name="Path 4099" d="M568,232.72a1.5,1.5,0,0,1-1.5-1.45l-2.17-62.89c0-.77-1.31-.94-3.82-1h-.67a1.5,1.5,0,1,1,.08-3h.65c2.48,0,6.63.13,6.76,3.88l2.17,62.89a1.5,1.5,0,0,1-1.45,1.55Z" transform="translate(70.07 61.45)" fill="#3555a1"/>
        <path id="Path_4100" data-name="Path 4100" d="M547.79,256.13l36.27.26a2.11,2.11,0,0,0,2.11-1.93l5.6-68.59-50.57-.37,4.61,68.77A2,2,0,0,0,547.79,256.13Z" transform="translate(70.07 61.45)" fill="#3555a1"/>
        <path id="Path_4101" data-name="Path 4101" d="M612.95,271.94l1.11,16.53h44.42l1.35-16.53Z" fill="#f8f8ee"/>
        <path id="Path_4102" data-name="Path 4102" d="M541.21,185.5l50.57.37v.42L546.4,186l4.6,68.73a2,2,0,0,0,.77,1.43h-4a2,2,0,0,1-2-1.85Z" transform="translate(70.07 61.45)" fill="#2b478b"/>
        <path id="Path_4103" data-name="Path 4103" d="M661.39,252.02l-49.84-.37.23,2.45,49.42.2Z" fill="#2b478b" opacity="0.84"/>
        <path id="Path_4104" data-name="Path 4104" d="M610.98,246.9l.35,5.12h50.42l.38-4.75Z" fill="#f8f8ee"/>
        <rect id="Rectangle_288" data-name="Rectangle 288" width="29.81" height="9.5" rx="3.1" transform="translate(661.92 261.34)" fill="#f94a3d"/>
        <path id="Path_4105" data-name="Path 4105" d="M650.14,276.71l8.79,45.78h35.26l8.91-46.04Z" fill="#f94a3d"/>
        <g id="Group_1107" data-name="Group 1107" opacity="0.11">
          <path id="Path_4106" data-name="Path 4106" d="M703.1,276.49v-.04l-52.96.26,8.79,45.78h7.86l-8.78-45.78Z" fill="#390028"/>
        </g>
        <path id="Path_4107" data-name="Path 4107" d="M661.85,268.13h29.88l11.37,8.65H650.01l11.78-8.44" fill="#ff7664"/>
        <path id="Path_4108" data-name="Path 4108" d="M614.72,224.19a14.81,14.81,0,1,0,3.58,20.63A14.81,14.81,0,0,0,614.72,224.19Zm-15.14,21.5a11.49,11.49,0,1,1,16-2.78,11.49,11.49,0,0,1-16,2.78Z" transform="translate(70.07 61.45)" fill="#ffbc01"/>
        <path id="Path_4109" data-name="Path 4109" d="M606.16,251.61A15.31,15.31,0,1,1,615,223.78h0a15.32,15.32,0,0,1-8.85,27.83Zm.06-29.63a14.5,14.5,0,0,0-2.48.21,14.24,14.24,0,1,0,2.48-.21Zm0,26.3a11.92,11.92,0,0,1-6.89-2.18h0a12,12,0,1,1,6.89,2.18Zm-6.31-3a11,11,0,1,0-4.5-7.11,11,11,0,0,0,4.5,7.11Z" transform="translate(70.07 61.45)" fill="#ff7664"/>
        <path id="Path_4110" data-name="Path 4110" d="M612.81,226.9a11.49,11.49,0,1,0,2.78,16,11.49,11.49,0,0,0-2.78-16Zm-5.35,13.81a.7.7,0,0,1-1,.17l-4.71-3.31a.7.7,0,0,1-.17-1l3.31-4.71a.7.7,0,0,1,1-.17L610.6,235a.7.7,0,0,1,.17,1Z" transform="translate(70.07 61.45)" fill="#ffbc01"/>
        <path id="Path_4111" data-name="Path 4111" d="M606.18,248.28a12,12,0,1,1,6.92-21.79h0a12,12,0,0,1-6.92,21.79Zm0-23a11,11,0,1,0,6.31,2h0a10.93,10.93,0,0,0-6.28-1.97Zm.68,16.19a1.19,1.19,0,0,1-.69-.22L601.5,238a1.2,1.2,0,0,1-.29-1.67l3.31-4.71a1.2,1.2,0,0,1,1.67-.29l4.71,3.31a1.2,1.2,0,0,1,.29,1.67L607.87,241a1.19,1.19,0,0,1-.98.5Zm-1.39-9.41a.2.2,0,0,0-.16.08L602,236.88a.2.2,0,0,0,0,.27l4.71,3.31a.2.2,0,0,0,.27,0l3.31-4.71a.2.2,0,0,0,0-.15.19.19,0,0,0-.08-.13l-4.71-3.31a.2.2,0,0,0,0-.07Z" transform="translate(70.07 61.45)" fill="#ff7664"/>
        <rect id="Rectangle_289" data-name="Rectangle 289" width="59.3" height="4.82" rx="1.73" transform="matrix(1, -0.006, 0.006, 1, 583.521, 319.86)" fill="#470b1b"/>
        <path id="Path_4112" data-name="Path 4112" d="M569.49,258.13l-11.12.07a1.22,1.22,0,0,0-.62.16l-3.93,2.36a1.27,1.27,0,0,1-1.16,0l-4.93-2.38a1.249,1.249,0,0,0-.55-.12l-30.5.18c-.55,0-1-.33-1-.74v-2.6c0-.41.44-.75,1-.75l52.8-.31c.55,0,1,.33,1,.74v2.6C570.48,257.79,570,258.12,569.49,258.13Z" transform="translate(70.07 61.45)" fill="#ffd98b"/>
        <rect id="Rectangle_290" data-name="Rectangle 290" width="52.88" height="3.58" rx="0.75" transform="matrix(1, -0.006, 0.006, 1, 586.679, 324.451)" fill="#f94a3d"/>
        <rect id="Rectangle_291" data-name="Rectangle 291" width="52.88" height="1.06" rx="0.45" transform="matrix(1, -0.006, 0.006, 1, 586.679, 324.461)" fill="#ec6565" opacity="0.74"/>
        <path id="Path_4113" data-name="Path 4113" d="M561.94,276.29l-37.4.16c-4.68,0-8.5-2.72-8.53-6.13v-4.25l54.36-.23v4.25C570.4,273.49,566.63,276.27,561.94,276.29Z" transform="translate(70.07 61.45)" fill="#ffac79"/>
        <path id="Path_4114" data-name="Path 4114" d="M570.34,265.83h-2.81c-.53,3-4.05,5.37-8.36,5.39l-31.42.13c-4.3,0-7.87-2.3-8.44-5.32H516v4.25c0,3.41,3.85,6.15,8.53,6.13l37.4-.16c4.68,0,8.46-2.8,8.43-6.2Z" transform="translate(70.07 61.45)" fill="#f97762" opacity="0.25"/>
        <path id="Path_4115" data-name="Path 4115" d="M571.88,254.56l-57.74.34h0c-.07-11.24,9.58-20.4,21.54-20.47l14.41-.08c12-.07,21.72,9,21.78,20.22Z" transform="translate(70.07 61.45)" fill="#ffb6af"/>
        <path id="Path_4116" data-name="Path 4116" d="M571.88,254.56l-57.74.34h0c-.07-11.24,9.58-20.4,21.54-20.47l14.41-.08c12-.07,21.72,9,21.78,20.22Z" transform="translate(70.07 61.45)" fill="#fff6f7" opacity="0.08"/>
        <path id="Path_4117" data-name="Path 4117" d="M571.88,254.56l-57.74.34h0c-.07-11.24,9.58-20.4,21.54-20.47l14.41-.08c12-.07,21.72,9,21.78,20.22Z" transform="translate(70.07 61.45)" fill="#ffac79"/>
        <path id="Path_4118" data-name="Path 4118" d="M558.62,235.92l.13.09c5.83,3.88,3,13-4,13.06l-25.93.15a6.07,6.07,0,0,1-4.8-9.88,16.909,16.909,0,0,1,4.22-3.64c-8.26,2.91-14.13,10.41-14.08,19.18l57.74-.34C571.83,246.16,566.37,239,558.62,235.92Z" transform="translate(70.07 61.45)" fill="#f97762" opacity="0.25"/>
        <path id="Path_4119" data-name="Path 4119" d="M541.63,240.14c-.59,0-1.18-.14-1.21-.53s.74-.68,1.41-.72,1.46.06,1.49.52h0c0,.46-.74.68-1.41.72Zm-.61-.57a3,3,0,0,0,1.7-.12,2.5,2.5,0,0,0-.86-.06,2.53,2.53,0,0,0-.86.17Z" transform="translate(70.07 61.45)" fill="#f8f8ee"/>
        <path id="Path_4120" data-name="Path 4120" d="M550.57,242.48c-.59,0-1.18-.14-1.21-.53,0-.15.07-.37.49-.54a3.61,3.61,0,0,1,1.84-.13c.45.1.55.31.56.46h0c0,.46-.74.68-1.41.72Zm-.61-.57a2.57,2.57,0,0,0,.86.06,2.54,2.54,0,0,0,.84-.18,3,3,0,0,0-1.7.12Z" transform="translate(70.07 61.45)" fill="#f8f8ee"/>
        <path id="Path_4121" data-name="Path 4121" d="M548.26,237.84c-.59,0-1.18-.14-1.21-.53,0-.15.07-.37.49-.54a3.23,3.23,0,0,1,.91-.19c.66,0,1.46.06,1.49.52,0,.15-.07.37-.49.54a3.232,3.232,0,0,1-.91.19Zm-.61-.57a2.47,2.47,0,0,0,.86.06,2.531,2.531,0,0,0,.84-.18,3,3,0,0,0-1.7.12Z" transform="translate(70.07 61.45)" fill="#f8f8ee"/>
        <path id="Path_4122" data-name="Path 4122" d="M533.58,242.65c-.59,0-1.18-.14-1.21-.53,0-.15.07-.37.49-.54a3.251,3.251,0,0,1,.91-.19,3.311,3.311,0,0,1,.93.05c.45.1.55.31.56.46h0c0,.15-.07.37-.49.54a3.25,3.25,0,0,1-.91.19Zm-.61-.57a3,3,0,0,0,1.7-.12,2.5,2.5,0,0,0-.86-.06,2.54,2.54,0,0,0-.81.18Z" transform="translate(70.07 61.45)" fill="#f8f8ee"/>
        <path id="Path_4123" data-name="Path 4123" d="M534,237.78c-.59,0-1.18-.14-1.21-.53,0-.15.07-.37.49-.54a3.61,3.61,0,0,1,1.84-.13c.45.1.55.31.56.46h0c0,.15-.07.37-.49.54a3.249,3.249,0,0,1-.91.19Zm-.61-.57a3,3,0,0,0,1.7-.12,2.51,2.51,0,0,0-.86-.06,2.539,2.539,0,0,0-.79.18Z" transform="translate(70.07 61.45)" fill="#f8f8ee"/>
        <path id="Path_4124" data-name="Path 4124" d="M635,322.16h75.77a3.51,3.51,0,0,1,3.51,3.51v4.56a7.82,7.82,0,0,1-7.82,7.82H639.33a7.82,7.82,0,0,1-7.82-7.82v-4.56A3.51,3.51,0,0,1,635,322.16Z" fill="#353535"/>
        <path id="Path_4125" data-name="Path 4125" d="M574.81,244.77l-6.61,11.41a5.83,5.83,0,0,0,5.07,8.74h13.22a5.83,5.83,0,0,0,5.07-8.74l-6.61-11.41a5.86,5.86,0,0,0-10.14,0Z" transform="translate(70.07 61.45)" fill="#e0e0e0"/>
        <path id="Path_4126" data-name="Path 4126" d="M571.49,255.13a.12.12,0,0,1-.09,0,1.73,1.73,0,0,1-.5-1,.73.73,0,0,1,.2-.55.49.49,0,0,1,.37-.14.56.56,0,0,1,.34.17.68.68,0,0,1,.08-.22.67.67,0,0,1,.86-.2,1.47,1.47,0,0,1,.44.36,1.23,1.23,0,0,0,.36.3.13.13,0,0,1,.06.17.12.12,0,0,1-.17.06,1.471,1.471,0,0,1-.44-.36,1.229,1.229,0,0,0-.36-.3.43.43,0,0,0-.54.11.77.77,0,0,0-.05.47.125.125,0,1,1-.24.07c-.08-.17-.22-.35-.36-.36a.19.19,0,0,0-.17.07.47.47,0,0,0-.13.35,1.48,1.48,0,0,0,.43.8.13.13,0,0,1-.09.21Z" transform="translate(70.07 61.45)" fill="#390028" opacity="0.11"/>
        <path id="Path_4127" data-name="Path 4127" d="M570.13,258.65a.12.12,0,0,1-.09,0,1.31,1.31,0,0,1-.37-.67.57.57,0,0,1,.05-.44.47.47,0,0,1,.59-.14,1.19,1.19,0,0,1,.4.37.13.13,0,1,1-.2.16,1,1,0,0,0-.31-.29.23.23,0,0,0-.28,0,.36.36,0,0,0,0,.25,1.06,1.06,0,0,0,.3.54.13.13,0,0,1,0,.18.12.12,0,0,1-.09.04Z" transform="translate(70.07 61.45)" fill="#390028" opacity="0.11"/>
        <path id="Path_4128" data-name="Path 4128" d="M578.9,253.57a.13.13,0,0,1-.12-.09,1.62,1.62,0,0,0-.32-.56.58.58,0,0,0-.29-.2.32.32,0,0,0-.33.16.36.36,0,0,0,0,.39.124.124,0,1,1-.19.16.61.61,0,0,1-.06-.67.57.57,0,0,1,.6-.28.8.8,0,0,1,.43.28,1.909,1.909,0,0,1,.37.65.13.13,0,0,1-.08.16Z" transform="translate(70.07 61.45)" fill="#390028" opacity="0.11"/>
        <path id="Path_4129" data-name="Path 4129" d="M577.82,258.55a.13.13,0,0,1-.12-.1,5.129,5.129,0,0,1-.12-.87c0-.29.09-.39.19-.43a.37.37,0,0,1,.25,0,1.452,1.452,0,0,1,.33.15.61.61,0,0,1,.34-.46,1,1,0,0,1,.9.17l.26.2a2.239,2.239,0,0,0,.4.28.125.125,0,1,1-.12.22,2.49,2.49,0,0,1-.44-.31l-.25-.19a.74.74,0,0,0-.66-.14.36.36,0,0,0-.19.28.24.24,0,0,0,0,.17h0a.124.124,0,0,1-.17.18l-.06-.06a1.26,1.26,0,0,0-.49-.3h-.08c-.02,0,0,.06,0,.19a4.639,4.639,0,0,0,.12.83.13.13,0,0,1-.09.15Z" transform="translate(70.07 61.45)" fill="#390028" opacity="0.11"/>
        <path id="Path_4130" data-name="Path 4130" d="M580.95,247.16a.12.12,0,0,1-.12-.11,2.49,2.49,0,0,1,0-.88.72.72,0,0,1,.27-.48.55.55,0,0,1,.61.06,1,1,0,0,1,.2.22.83.83,0,0,1,.24-.25,1,1,0,0,1,.75-.16,2,2,0,0,1,1,.75.124.124,0,0,1-.19.16,1.75,1.75,0,0,0-.9-.67.73.73,0,0,0-.56.12.52.52,0,0,0-.23.35.13.13,0,0,1-.23,0,1.249,1.249,0,0,0-.28-.37.3.3,0,0,0-.33,0,.47.47,0,0,0-.16.32,2.251,2.251,0,0,0,0,.79.12.12,0,0,1-.1.14Z" transform="translate(70.07 61.45)" fill="#390028" opacity="0.11"/>
        <path id="Path_4131" data-name="Path 4131" d="M586.31,258.26a.12.12,0,0,1-.12-.08,1.69,1.69,0,0,1-.1-.81.455.455,0,0,1,.36-.47.4.4,0,0,1,.27.07,2.19,2.19,0,0,1,.79.76.12.12,0,1,1-.17.17,1.93,1.93,0,0,0-.7-.67.26.26,0,0,0-.12,0c-.07,0-.12.13-.13.25a1.44,1.44,0,0,0,.09.69.13.13,0,0,1-.07.16Z" transform="translate(70.07 61.45)" fill="#390028" opacity="0.11"/>
        <path id="Path_4132" data-name="Path 4132" d="M585.85,265.05h-12a.12.12,0,0,1-.12-.12V254.61a3.63,3.63,0,0,1,3.62-3.62h5a3.63,3.63,0,0,1,3.62,3.62v10.32a.12.12,0,0,1-.12.12ZM574,264.8h11.71V254.61a3.38,3.38,0,0,0-3.37-3.37h-5a3.38,3.38,0,0,0-3.37,3.37Z" transform="translate(70.07 61.45)" fill="#390028" opacity="0.11"/>
        <path id="Path_4133" data-name="Path 4133" d="M647.46,312.56h5a3.5,3.5,0,0,1,3.5,3.5v10.32H644V316.06a3.5,3.5,0,0,1,3.46-3.5Z" fill="#390028"/>
        <g id="Group_1108" data-name="Group 1108" opacity="0.11">
          <path id="Path_4134" data-name="Path 4134" d="M578.11,247.07a.3.3,0,1,1,.3-.3A.3.3,0,0,1,578.11,247.07Zm0-.34c0,.05.09.05.09,0h-.09Z" transform="translate(70.07 61.45)" fill="#390028"/>
          <path id="Path_4135" data-name="Path 4135" d="M575.8,248.18a.3.3,0,1,1,.3-.3A.3.3,0,0,1,575.8,248.18Zm0-.34s.09.05.09,0Z" transform="translate(70.07 61.45)" fill="#390028"/>
          <path id="Path_4136" data-name="Path 4136" d="M577.94,248.84a.47.47,0,1,1,.47-.47.47.47,0,0,1-.47.47Zm0-.69a.22.22,0,1,0,.22.22.22.22,0,0,0-.22-.22Z" transform="translate(70.07 61.45)" fill="#390028"/>
        </g>
        <g id="Group_1109" data-name="Group 1109" opacity="0.11">
          <path id="Path_4137" data-name="Path 4137" d="M589.46,259.11a.3.3,0,1,1,.23-.11h0A.3.3,0,0,1,589.46,259.11Zm.13-.19Zm-.13-.16h0v.07a.05.05,0,0,0,.07,0v-.07Z" transform="translate(70.07 61.45)" fill="#390028"/>
          <path id="Path_4138" data-name="Path 4138" d="M587,258.49a.3.3,0,0,1-.19-.07.291.291,0,0,1-.04-.42.3.3,0,0,1,.42,0,.29.29,0,0,1,.11.2.3.3,0,0,1-.07.22h0a.3.3,0,0,1-.23.07Zm.13-.19Zm-.13-.16h0l.06-.07Z" transform="translate(70.07 61.45)" fill="#390028"/>
          <path id="Path_4139" data-name="Path 4139" d="M588.3,260.4a.47.47,0,1,1,.36-.17.47.47,0,0,1-.36.17Zm0-.69a.22.22,0,0,0-.22.24.21.21,0,0,0,.08.15.174.174,0,1,0,.31-.16.21.21,0,0,0-.08-.15.22.22,0,0,0-.09-.08Z" transform="translate(70.07 61.45)" fill="#390028"/>
        </g>
        <rect id="Rectangle_292" data-name="Rectangle 292" width="24.63" height="10.13" rx="3.23" transform="translate(687.15 311.73)" fill="#f8f8ee"/>
        <path id="Path_4140" data-name="Path 4140" d="M621.64,257.08a.12.12,0,0,1-.09,0,1.78,1.78,0,0,1-.52-1,.74.74,0,0,1,.2-.56.46.46,0,0,1,.37-.15.57.57,0,0,1,.35.18.7.7,0,0,1,.09-.24.69.69,0,0,1,.88-.21,1.49,1.49,0,0,1,.45.37,1.3,1.3,0,0,0,.37.31.13.13,0,0,1-.11.23,1.5,1.5,0,0,1-.45-.37,1.3,1.3,0,0,0-.37-.31.44.44,0,0,0-.56.11.78.78,0,0,0-.05.48.125.125,0,1,1-.24.07c-.08-.18-.23-.37-.38-.38a.2.2,0,0,0-.18.07.48.48,0,0,0-.13.36,1.53,1.53,0,0,0,.44.83.13.13,0,0,1-.09.21Z" transform="translate(70.07 61.45)" fill="#390028" opacity="0.11"/>
        <path id="Path_4141" data-name="Path 4141" d="M620.24,258.66a.13.13,0,0,1-.09,0,1.34,1.34,0,0,1-.38-.69.59.59,0,0,1,.05-.45.48.48,0,0,1,.6-.14,1.2,1.2,0,0,1,.41.38.13.13,0,0,1-.2.16,1,1,0,0,0-.32-.3.24.24,0,0,0-.29,0,.39.39,0,0,0,0,.27,1.09,1.09,0,0,0,.31.56.13.13,0,0,1,0,.18.12.12,0,0,1-.09.03Z" transform="translate(70.07 61.45)" fill="#390028" opacity="0.11"/>
        <path id="Path_4142" data-name="Path 4142" d="M629.28,255.47a.13.13,0,0,1-.12-.09,1.651,1.651,0,0,0-.33-.58.59.59,0,0,0-.3-.21.33.33,0,0,0-.34.16.38.38,0,0,0,0,.41.124.124,0,0,1-.19.16.63.63,0,0,1-.06-.69.58.58,0,0,1,.62-.29.82.82,0,0,1,.44.29,1.9,1.9,0,0,1,.38.66.13.13,0,0,1-.08.16Z" transform="translate(70.07 61.45)" fill="#390028" opacity="0.11"/>
        <path id="Path_4143" data-name="Path 4143" d="M628.17,258.55a.13.13,0,0,1-.12-.1,5.148,5.148,0,0,1-.13-.9c0-.29.1-.4.19-.44a.38.38,0,0,1,.26,0,1.551,1.551,0,0,1,.35.16.63.63,0,0,1,.35-.48,1,1,0,0,1,.92.17l.27.21a2.289,2.289,0,0,0,.41.29.125.125,0,1,1-.12.22,2.557,2.557,0,0,1-.45-.32l-.25-.2a.77.77,0,0,0-.68-.15.38.38,0,0,0-.2.29.26.26,0,0,0,0,.18h0a.13.13,0,0,1-.17.18l-.07-.07a1.29,1.29,0,0,0-.51-.31h-.09v.2a4.846,4.846,0,0,0,.12.85.13.13,0,0,1-.09.15Z" transform="translate(70.07 61.45)" fill="#390028" opacity="0.11"/>
        <path id="Path_4144" data-name="Path 4144" d="M635.06,256a.12.12,0,0,1-.12-.11,2.592,2.592,0,0,1,0-.9.73.73,0,0,1,.28-.5.55.55,0,0,1,.63.06,1,1,0,0,1,.21.23.85.85,0,0,1,.25-.27,1,1,0,0,1,.77-.16,2,2,0,0,1,1.08.78.13.13,0,0,1,0,.18.12.12,0,0,1-.18,0,1.8,1.8,0,0,0-.93-.69.77.77,0,0,0-.58.12.54.54,0,0,0-.24.37.124.124,0,0,1-.23.04,1.28,1.28,0,0,0-.29-.38.32.32,0,0,0-.34-.05.5.5,0,0,0-.17.33,2.322,2.322,0,0,0,0,.81.12.12,0,0,1-.1.14Z" transform="translate(70.07 61.45)" fill="#390028" opacity="0.11"/>
        <path id="Path_4145" data-name="Path 4145" d="M636.93,258.25a.13.13,0,0,1-.12-.08,1.73,1.73,0,0,1-.11-.83.451.451,0,0,1,.36-.48.43.43,0,0,1,.28.08,2.24,2.24,0,0,1,.81.78.123.123,0,1,1-.21.13,2,2,0,0,0-.72-.69.31.31,0,0,0-.13,0c-.07,0-.13.14-.14.26a1.48,1.48,0,0,0,.09.71.12.12,0,0,1-.07.16Z" transform="translate(70.07 61.45)" fill="#390028" opacity="0.11"/>
        <rect id="Rectangle_293" data-name="Rectangle 293" width="28.79" height="8.42" rx="3.23" transform="translate(685.07 306.14)" fill="#ff7664"/>
        <rect id="Rectangle_294" data-name="Rectangle 294" width="2.05" height="8.42" transform="translate(688.7 306.14)" fill="#f94a3d"/>
        <rect id="Rectangle_295" data-name="Rectangle 295" width="2.05" height="8.42" transform="translate(694.94 306.14)" fill="#f94a3d"/>
        <rect id="Rectangle_296" data-name="Rectangle 296" width="2.05" height="8.42" transform="translate(701.53 306.14)" fill="#f94a3d"/>
        <rect id="Rectangle_297" data-name="Rectangle 297" width="2.05" height="8.42" transform="translate(707.98 306.14)" fill="#f94a3d"/>
        <rect id="Rectangle_298" data-name="Rectangle 298" width="21.02" height="12.59" transform="translate(663.01 310.37)" fill="#390028"/>
        <ellipse id="Ellipse_123" data-name="Ellipse 123" cx="10.5" cy="3.46" rx="10.5" ry="3.46" transform="translate(663.02 306.95)" fill="#f8f8ee"/>
        <ellipse id="Ellipse_124" data-name="Ellipse 124" cx="3.15" cy="1.04" rx="3.15" ry="1.04" transform="translate(670.37 309)" fill="#f94a3d"/>
        <path id="Path_4146" data-name="Path 4146" d="M600.92,247.61a.12.12,0,0,1-.12-.1,2.548,2.548,0,0,1,0-.9.73.73,0,0,1,.28-.5.55.55,0,0,1,.63.06,1,1,0,0,1,.21.23.85.85,0,0,1,.25-.27A1,1,0,0,1,603,246a2,2,0,0,1,1.08.78.124.124,0,1,1-.19.16,1.8,1.8,0,0,0-.93-.69.76.76,0,0,0-.58.12.55.55,0,0,0-.24.37.13.13,0,0,1-.23,0,1.27,1.27,0,0,0-.29-.38.32.32,0,0,0-.34-.05.5.5,0,0,0-.17.34,2.322,2.322,0,0,0,0,.81.12.12,0,0,1-.1.14Z" transform="translate(70.07 61.45)" fill="#390028" opacity="0.11"/>
        <g id="Group_1110" data-name="Group 1110" opacity="0.11">
          <path id="Path_4147" data-name="Path 4147" d="M598,247.53a.3.3,0,1,1,.3-.3A.3.3,0,0,1,598,247.53Zm0-.35a.05.05,0,0,0-.05.05c0,.06.11.06.11,0a.05.05,0,0,0-.06-.06Z" transform="translate(70.07 61.45)" fill="#390028"/>
          <path id="Path_4148" data-name="Path 4148" d="M595.62,248.67a.3.3,0,1,1,.3-.3A.3.3,0,0,1,595.62,248.67Zm0-.35a.05.05,0,0,0-.05.05c0,.06.11.06.11,0a.05.05,0,0,0-.06-.05Z" transform="translate(70.07 61.45)" fill="#390028"/>
          <path id="Path_4149" data-name="Path 4149" d="M597.82,249.35a.48.48,0,1,1,.48-.48.48.48,0,0,1-.48.48Zm0-.71a.23.23,0,1,0,.23.23A.23.23,0,0,0,597.82,248.64Z" transform="translate(70.07 61.45)" fill="#390028"/>
        </g>
        <g id="Group_1111" data-name="Group 1111" opacity="0.11">
          <path id="Path_4150" data-name="Path 4150" d="M610.28,248.69a.3.3,0,1,1,.3-.3.3.3,0,0,1-.3.3Zm0-.35a.05.05,0,0,0-.05.05c0,.06.11.06.11,0a.05.05,0,0,0-.06-.05Z" transform="translate(70.07 61.45)" fill="#390028"/>
          <path id="Path_4151" data-name="Path 4151" d="M607.9,249.84a.3.3,0,1,1,.3-.3.3.3,0,0,1-.3.3Zm0-.35a.05.05,0,0,0-.05.05c0,.06.11.06.11,0a.05.05,0,0,0-.06-.06Z" transform="translate(70.07 61.45)" fill="#390028"/>
          <path id="Path_4152" data-name="Path 4152" d="M610.1,250.51a.48.48,0,1,1,.48-.48.48.48,0,0,1-.48.48Zm0-.71a.225.225,0,1,1,0,.01Z" transform="translate(70.07 61.45)" fill="#390028"/>
        </g>
        <rect id="Rectangle_299" data-name="Rectangle 299" width="24.63" height="10.13" rx="3.23" transform="translate(685.42 323.84)" fill="#f8f8ee"/>
        <path id="Path_4153" data-name="Path 4153" d="M619.91,269.2a.12.12,0,0,1-.09,0,1.78,1.78,0,0,1-.51-1,.74.74,0,0,1,.2-.56.46.46,0,0,1,.38-.15.58.58,0,0,1,.35.18.64.64,0,0,1,1-.44,1.491,1.491,0,0,1,.45.37,1.28,1.28,0,0,0,.37.31.127.127,0,0,1-.11.23,1.49,1.49,0,0,1-.45-.37,1.281,1.281,0,0,0-.37-.31.44.44,0,0,0-.56.11.8.8,0,0,0-.05.48.126.126,0,0,1-.24.07c-.08-.18-.23-.37-.38-.38a.22.22,0,0,0-.18.08.48.48,0,0,0-.13.36,1.519,1.519,0,0,0,.44.83.13.13,0,0,1-.09.21Z" transform="translate(70.07 61.45)" fill="#390028" opacity="0.11"/>
        <path id="Path_4154" data-name="Path 4154" d="M618.51,270.77a.12.12,0,0,1-.09,0A1.35,1.35,0,0,1,618,270a.58.58,0,0,1,.05-.46.48.48,0,0,1,.6-.14,1.2,1.2,0,0,1,.41.38.13.13,0,1,1-.2.15,1,1,0,0,0-.32-.3.24.24,0,0,0-.29,0,.37.37,0,0,0,0,.26,1.1,1.1,0,0,0,.31.56.13.13,0,0,1-.09.22Z" transform="translate(70.07 61.45)" fill="#390028" opacity="0.11"/>
        <path id="Path_4155" data-name="Path 4155" d="M627.55,267.58a.12.12,0,0,1-.12-.09,1.709,1.709,0,0,0-.33-.58.6.6,0,0,0-.3-.21.33.33,0,0,0-.34.16.38.38,0,0,0,0,.41.124.124,0,0,1-.19.16.64.64,0,0,1-.06-.69.58.58,0,0,1,.61-.29.83.83,0,0,1,.44.29,2,2,0,0,1,.38.67.12.12,0,0,1-.08.16Z" transform="translate(70.07 61.45)" fill="#390028" opacity="0.11"/>
        <path id="Path_4156" data-name="Path 4156" d="M626.43,270.66a.13.13,0,0,1-.12-.1,5.305,5.305,0,0,1-.13-.9c0-.29.1-.4.2-.44a.36.36,0,0,1,.26,0,1.517,1.517,0,0,1,.34.16.62.62,0,0,1,.35-.48,1,1,0,0,1,.92.17l.27.21a2.359,2.359,0,0,0,.41.29.125.125,0,1,1-.12.22,2.6,2.6,0,0,1-.46-.32l-.25-.2a.77.77,0,0,0-.68-.15.38.38,0,0,0-.2.29.26.26,0,0,0,0,.18h0a.13.13,0,0,1-.17.18l-.06-.07a1.29,1.29,0,0,0-.51-.3h-.09a1.019,1.019,0,0,0,0,.2,4.917,4.917,0,0,0,.12.85.13.13,0,0,1-.09.15Z" transform="translate(70.07 61.45)" fill="#390028" opacity="0.11"/>
        <path id="Path_4157" data-name="Path 4157" d="M633.32,268.12a.12.12,0,0,1-.12-.11,2.539,2.539,0,0,1,0-.9.73.73,0,0,1,.28-.5.55.55,0,0,1,.63.06,1,1,0,0,1,.21.23.839.839,0,0,1,.25-.27,1,1,0,0,1,.77-.16,2,2,0,0,1,1.08.78.13.13,0,0,1,0,.18.12.12,0,0,1-.18,0,1.8,1.8,0,0,0-.93-.69.76.76,0,0,0-.58.13.54.54,0,0,0-.24.37.123.123,0,0,1-.23.05,1.28,1.28,0,0,0-.29-.38.32.32,0,0,0-.34-.05.5.5,0,0,0-.17.34,2.322,2.322,0,0,0,0,.81.12.12,0,0,1-.1.14Z" transform="translate(70.07 61.45)" fill="#390028" opacity="0.11"/>
        <path id="Path_4158" data-name="Path 4158" d="M635.2,270.37a.13.13,0,0,1-.12-.08,1.72,1.72,0,0,1-.11-.83.452.452,0,0,1,.36-.48.44.44,0,0,1,.28.08,2.25,2.25,0,0,1,.81.78.13.13,0,0,1,0,.17.12.12,0,0,1-.17,0,2,2,0,0,0-.72-.69.3.3,0,0,0-.13,0c-.07,0-.13.14-.14.26a1.47,1.47,0,0,0,.09.71.12.12,0,0,1-.07.16Z" transform="translate(70.07 61.45)" fill="#390028" opacity="0.11"/>
        <rect id="Rectangle_300" data-name="Rectangle 300" width="28.79" height="8.42" rx="3.23" transform="translate(683.34 318.25)" fill="#ff7664"/>
        <rect id="Rectangle_301" data-name="Rectangle 301" width="2.05" height="8.42" transform="translate(686.97 318.25)" fill="#f94a3d"/>
        <rect id="Rectangle_302" data-name="Rectangle 302" width="2.05" height="8.42" transform="translate(693.21 318.25)" fill="#f94a3d"/>
        <rect id="Rectangle_303" data-name="Rectangle 303" width="2.05" height="8.42" transform="translate(699.8 318.25)" fill="#f94a3d"/>
        <rect id="Rectangle_304" data-name="Rectangle 304" width="2.05" height="8.42" transform="translate(706.25 318.25)" fill="#f94a3d"/>
        <rect id="Rectangle_305" data-name="Rectangle 305" width="21.02" height="12.59" transform="translate(661.33 319.85)" fill="#390028"/>
        <ellipse id="Ellipse_125" data-name="Ellipse 125" cx="10.5" cy="3.46" rx="10.5" ry="3.46" transform="translate(661.34 316.44)" fill="#f8f8ee"/>
        <ellipse id="Ellipse_126" data-name="Ellipse 126" cx="3.15" cy="1.04" rx="3.15" ry="1.04" transform="translate(668.69 318.49)" fill="#f94a3d"/>
        <path id="Path_4159" data-name="Path 4159" d="M599.25,257.1a.12.12,0,0,1-.12-.11,2.5,2.5,0,0,1,0-.9.73.73,0,0,1,.28-.5.56.56,0,0,1,.63.06,1,1,0,0,1,.21.23.849.849,0,0,1,.25-.27,1,1,0,0,1,.77-.16,2,2,0,0,1,1.08.77.127.127,0,1,1-.18.18,1.8,1.8,0,0,0-.93-.69.77.77,0,0,0-.58.12.54.54,0,0,0-.24.37.124.124,0,0,1-.23.04,1.3,1.3,0,0,0-.29-.38.33.33,0,0,0-.34-.05.5.5,0,0,0-.17.33,2.277,2.277,0,0,0,0,.81.12.12,0,0,1-.1.14Z" transform="translate(70.07 61.45)" fill="#390028" opacity="0.11"/>
        <g id="Group_1112" data-name="Group 1112" opacity="0.11">
          <path id="Path_4160" data-name="Path 4160" d="M596.32,257a.3.3,0,1,1,.3-.3A.3.3,0,0,1,596.32,257Zm0-.35a.05.05,0,0,0-.05.05c0,.06.11.06.11,0a.05.05,0,0,0-.06-.04Z" transform="translate(70.07 61.45)" fill="#390028"/>
          <path id="Path_4161" data-name="Path 4161" d="M593.94,258.16a.3.3,0,1,1,.3-.3A.3.3,0,0,1,593.94,258.16Zm0-.35a.05.05,0,0,0-.05.05c0,.06.11.06.11,0a.05.05,0,0,0-.06-.06Z" transform="translate(70.07 61.45)" fill="#390028"/>
          <path id="Path_4162" data-name="Path 4162" d="M596.14,258.84a.48.48,0,1,1,.48-.48.48.48,0,0,1-.48.48Zm0-.71a.23.23,0,1,0,.23.23A.23.23,0,0,0,596.14,258.13Z" transform="translate(70.07 61.45)" fill="#390028"/>
        </g>
        <g id="Group_1113" data-name="Group 1113" opacity="0.11">
          <path id="Path_4163" data-name="Path 4163" d="M608.6,258.18a.3.3,0,1,1,.3-.3A.3.3,0,0,1,608.6,258.18Zm0-.35a.022.022,0,1,0,0-.01Z" transform="translate(70.07 61.45)" fill="#390028"/>
          <path id="Path_4164" data-name="Path 4164" d="M606.22,259.32a.3.3,0,1,1,.3-.3A.3.3,0,0,1,606.22,259.32Zm0-.35a.05.05,0,0,0-.05.05c0,.06.11.06.11,0a.05.05,0,0,0-.06-.02Z" transform="translate(70.07 61.45)" fill="#390028"/>
          <path id="Path_4165" data-name="Path 4165" d="M608.42,260a.48.48,0,1,1,.48-.48.48.48,0,0,1-.48.48Zm0-.71a.23.23,0,1,0,.23.23A.23.23,0,0,0,608.42,259.29Z" transform="translate(70.07 61.45)" fill="#390028"/>
        </g>
        <path id="Path_4166" data-name="Path 4166" d="M570.86,253,564,264.8a6,6,0,0,0,5.22,9H582.9a6,6,0,0,0,5.22-9L581.3,253a6,6,0,0,0-10.44,0Z" transform="translate(70.07 61.45)" fill="#fff"/>
        <path id="Path_4167" data-name="Path 4167" d="M567.43,263.71a.12.12,0,0,1-.09,0,1.78,1.78,0,0,1-.51-1,.74.74,0,0,1,.2-.56.46.46,0,0,1,.37-.15.58.58,0,0,1,.35.18.64.64,0,0,1,1-.44,1.49,1.49,0,0,1,.45.37,1.3,1.3,0,0,0,.37.31.13.13,0,1,1-.11.23,1.49,1.49,0,0,1-.45-.37,1.3,1.3,0,0,0-.37-.31.45.45,0,0,0-.56.11.78.78,0,0,0-.05.48.125.125,0,0,1-.24.07c-.08-.18-.23-.37-.38-.38a.2.2,0,0,0-.18.08.48.48,0,0,0-.13.36,1.52,1.52,0,0,0,.44.83.13.13,0,0,1-.09.21Z" transform="translate(70.07 61.45)" fill="#390028" opacity="0.11"/>
        <path id="Path_4168" data-name="Path 4168" d="M566,267.34a.13.13,0,0,1-.09,0,1.351,1.351,0,0,1-.38-.69.58.58,0,0,1,.05-.45.48.48,0,0,1,.6-.14,1.2,1.2,0,0,1,.41.38.13.13,0,0,1-.2.16,1,1,0,0,0-.32-.3.24.24,0,0,0-.29,0,.37.37,0,0,0,0,.26,1.091,1.091,0,0,0,.31.56.13.13,0,0,1,0,.18A.12.12,0,0,1,566,267.34Z" transform="translate(70.07 61.45)" fill="#390028" opacity="0.11"/>
        <path id="Path_4169" data-name="Path 4169" d="M575.07,262.1a.12.12,0,0,1-.07-.1,1.719,1.719,0,0,0-.33-.58.59.59,0,0,0-.3-.21.34.34,0,0,0-.34.16.38.38,0,0,0,0,.41.12.12,0,0,1,0,.18.13.13,0,0,1-.18,0,.64.64,0,0,1-.06-.69.57.57,0,0,1,.61-.29.81.81,0,0,1,.44.29,1.94,1.94,0,0,1,.38.67.12.12,0,0,1-.08.16Z" transform="translate(70.07 61.45)" fill="#390028" opacity="0.11"/>
        <path id="Path_4170" data-name="Path 4170" d="M574,267.23a.13.13,0,0,1-.12-.1,5.268,5.268,0,0,1-.13-.9c0-.29.1-.4.2-.44a.38.38,0,0,1,.25,0,1.551,1.551,0,0,1,.35.16.62.62,0,0,1,.35-.48,1,1,0,0,1,.92.17l.27.21a2.327,2.327,0,0,0,.41.29.123.123,0,0,1-.11.22,2.549,2.549,0,0,1-.46-.32l-.25-.2a.77.77,0,0,0-.68-.15.38.38,0,0,0-.2.29.26.26,0,0,0,0,.18h0a.13.13,0,0,1-.17.18l-.07-.07a1.29,1.29,0,0,0-.51-.31H574v.2a4.905,4.905,0,0,0,.12.85.13.13,0,0,1-.09.15Z" transform="translate(70.07 61.45)" fill="#390028" opacity="0.11"/>
        <path id="Path_4171" data-name="Path 4171" d="M577.19,255.49a.12.12,0,0,1-.12-.11,2.538,2.538,0,0,1,0-.9.73.73,0,0,1,.28-.5.56.56,0,0,1,.63.06,1.072,1.072,0,0,1,.21.23.831.831,0,0,1,.25-.27,1,1,0,0,1,.77-.16,2,2,0,0,1,1.08.78.127.127,0,1,1-.18.18,1.811,1.811,0,0,0-.93-.69.77.77,0,0,0-.58.12.55.55,0,0,0-.24.37.124.124,0,0,1-.23.04,1.259,1.259,0,0,0-.29-.38.32.32,0,0,0-.34-.05.49.49,0,0,0-.17.33,2.322,2.322,0,0,0,0,.81.12.12,0,0,1-.1.14Z" transform="translate(70.07 61.45)" fill="#390028" opacity="0.11"/>
        <path id="Path_4172" data-name="Path 4172" d="M582.72,266.93a.13.13,0,0,1-.12-.08,1.719,1.719,0,0,1-.11-.83.452.452,0,0,1,.36-.48.43.43,0,0,1,.28.08,2.24,2.24,0,0,1,.81.78.124.124,0,0,1-.21.13,2,2,0,0,0-.72-.69.31.31,0,0,0-.13,0c-.07,0-.13.14-.14.26a1.47,1.47,0,0,0,.09.71.12.12,0,0,1-.07.16Z" transform="translate(70.07 61.45)" fill="#390028" opacity="0.11"/>
        <path id="Path_4173" data-name="Path 4173" d="M582.25,273.94H569.91a.12.12,0,0,1-.12-.12V263.07a3.63,3.63,0,0,1,3.62-3.62h5.34a3.63,3.63,0,0,1,3.62,3.62v10.75A.12.12,0,0,1,582.25,273.94ZM570,273.69h12.08V263.07a3.38,3.38,0,0,0-3.37-3.37h-5.34a3.38,3.38,0,0,0-3.37,3.37Z" transform="translate(70.07 61.45)" fill="#390028" opacity="0.11"/>
        <path id="Path_4174" data-name="Path 4174" d="M643.48,321h5.34a3.5,3.5,0,0,1,3.5,3.5v10.75H640V324.52A3.5,3.5,0,0,1,643.48,321Z" fill="#390028"/>
        <g id="Group_1114" data-name="Group 1114" opacity="0.11">
          <path id="Path_4175" data-name="Path 4175" d="M574.26,255.4a.3.3,0,1,1,.3-.3.3.3,0,0,1-.3.3Zm0-.35a.05.05,0,1,0,.05.05.056.056,0,0,0-.05-.1Z" transform="translate(70.07 61.45)" fill="#390028"/>
          <path id="Path_4176" data-name="Path 4176" d="M571.88,256.54a.3.3,0,1,1,.3-.3A.3.3,0,0,1,571.88,256.54Zm0-.35a.05.05,0,0,0-.05.05c0,.06.11.06.11,0a.05.05,0,0,0-.06-.05Z" transform="translate(70.07 61.45)" fill="#390028"/>
          <path id="Path_4177" data-name="Path 4177" d="M574.08,257.22a.48.48,0,1,1,.48-.48A.48.48,0,0,1,574.08,257.22Zm0-.71a.23.23,0,1,0,.23.23A.23.23,0,0,0,574.08,256.51Z" transform="translate(70.07 61.45)" fill="#390028"/>
        </g>
        <g id="Group_1115" data-name="Group 1115" opacity="0.11">
          <path id="Path_4178" data-name="Path 4178" d="M586,267.81a.306.306,0,1,1,.24-.11h0A.31.31,0,0,1,586,267.81Zm.14-.19Zm-.14-.17h0a.05.05,0,0,0,.07,0,.06.06,0,0,0,0-.07Z" transform="translate(70.07 61.45)" fill="#390028"/>
          <path id="Path_4179" data-name="Path 4179" d="M583.4,267.17a.284.284,0,1,1,.03,0Zm0-.35h0a.05.05,0,0,0,0,.07.06.06,0,0,0,.07,0h0v-.07Z" transform="translate(70.07 61.45)" fill="#390028"/>
          <path id="Path_4180" data-name="Path 4180" d="M584.76,269.14a.481.481,0,1,1,.37-.17h0A.48.48,0,0,1,584.76,269.14Zm0-.71a.222.222,0,1,0,.18.06.23.23,0,0,0-.18-.06Zm.27.46Z" transform="translate(70.07 61.45)" fill="#390028"/>
        </g>
        <path id="Path_4181" data-name="Path 4181" d="M639,276.59H566.91a6.23,6.23,0,0,1-6.23-6.23h84.55A6.23,6.23,0,0,1,639,276.59Z" transform="translate(70.07 61.45)" fill="#3555a1"/>
      </g>
    </g>
  </g>
</svg>
