<svg xmlns="http://www.w3.org/2000/svg" width="335.06" height="313.088" viewBox="0 0 335.06 313.088">
  <g id="Group_1072" data-name="Group 1072" transform="translate(-59.242 -18.576)">
    <path id="Path_84" data-name="Path 84" d="M366.646,246.431C339.093,258.6,322.79,280.3,309.588,309.574c0,.115-.115.115-.115.23a2.512,2.512,0,0,1-.344.574,25.71,25.71,0,0,1-11.251,12.284c-11.366,6.2-27.094,4.363-38,1.722a102.111,102.111,0,0,1-12.514-3.789c-.23-.115-.459-.115-.689-.23-23.42-7.118-15.384,15.5-53.155,19.861a72.416,72.416,0,0,1-10.1.344h0c-19.287-.8-42.134-8.955-59.814-16.647-9.873-4.363-18.254-8.5-23.306-11.251a27.984,27.984,0,0,1-11.94-11.71c-10.218-18.828-2.755-43.167,3.559-57.4a31.657,31.657,0,0,0-1.148-27.668c-4.937-9.3-13.777-19.747-22.617-30.309s-9.184-39.493-8.84-45.578c11.366-190.348,279.9-91.615,319.046-45.348C406.254,127.607,394.429,234.032,366.646,246.431Z" transform="translate(0.014 -8.951)" fill="#ffeebe"/>
    <path id="Path_3998" data-name="Path 3998" d="M366.646,246.431C339.093,258.6,322.79,280.3,309.588,309.574c0,.115-.115.115-.115.23a2.512,2.512,0,0,1-.344.574,25.71,25.71,0,0,1-11.251,12.284c-11.366,6.2-27.094,4.363-38,1.722a102.111,102.111,0,0,1-12.514-3.789c-.23-.115-.459-.115-.689-.23-23.42-7.118-15.384,15.5-53.155,19.861a72.416,72.416,0,0,1-10.1.344h0c-19.287-.8-42.134-8.955-59.814-16.647-9.873-4.363-18.254-8.5-23.306-11.251a27.984,27.984,0,0,1-11.94-11.71c-10.218-18.828-2.755-43.167,3.559-57.4a31.657,31.657,0,0,0-1.148-27.668c-4.937-9.3-13.777-19.747-22.617-30.309s-9.184-39.493-8.84-45.578c11.366-190.348,279.9-91.615,319.046-45.348C406.254,127.607,394.429,234.032,366.646,246.431Z" transform="translate(0.014 -8.951)" fill="#ffd768"/>
    <path id="Path_3999" data-name="Path 3999" d="M79.473,187.852c20.18,8.913,32.12,24.8,41.79,46.246,0,.084.084.084.084.168a1.839,1.839,0,0,0,.252.42,18.83,18.83,0,0,0,8.24,9c8.324,4.541,19.844,3.2,27.832,1.261a74.782,74.782,0,0,0,9.165-2.775c.168-.084.336-.084.5-.168,17.153-5.213,11.267,11.351,38.931,14.546a53.039,53.039,0,0,0,7.4.252h0c14.126-.589,30.859-6.559,43.808-12.192,7.231-3.2,13.369-6.222,17.069-8.24a20.5,20.5,0,0,0,8.745-8.577c7.483-13.79,2.018-31.615-2.607-42.042a23.186,23.186,0,0,1,.841-20.264c3.616-6.811,10.09-14.462,16.564-22.2s6.727-28.925,6.474-33.381C296.24-29.5,99.569,42.807,70.9,76.693,50.464,100.825,59.124,178.771,79.473,187.852Z" transform="translate(65.073 0.84) rotate(11)" fill="#ffeebe"/>
    <g id="Group_771" transform="translate(123.535 127.425)">
      <path id="Path_85" d="M303.82,475.282s-10.218,20.435-20.55,34.557c-4.133,5.625-8.266,10.218-11.825,12.169a28.2,28.2,0,0,0-8.84,8.036,65.152,65.152,0,0,0-9.184,18.828L226.9,508.691s.918-39.264,4.133-45.808c4.592-9.529,6.888-28.816,8.61-32.72,1.378-2.87,5.051-17.565,5.511-18.713a3.9,3.9,0,0,1,3.1-1.148,4.874,4.874,0,0,1,4.133,3.9,43.916,43.916,0,0,1-.574,22.158c1.033,10.1-1.952,17.565.115,19.632.115.115.23,0,.459-.115,3.674-2.3,26.291-35.475,29.161-36.164C284.3,419.142,303.82,475.282,303.82,475.282Z" transform="translate(-192.803 -395.837)" fill="#ffcca9"/>
      <path id="Union_6" data-name="Union 6" d="M2434.223,185.834a1.606,1.606,0,0,1,.345-.574l.057-.114h-.172c15.269-32.605,28.587-60.044,28.587-60.044s38.116,1.147,39.722,18.254c0,0-.344,17.795-1.377,41.79,0,.574-.115,2.87-.689,13.317-.114,2.525-2.641,3.788-6.658,4.018C2474.749,201.677,2451.9,193.526,2434.223,185.834Z" transform="translate(-2434.223 1.759)" fill="#3555a1"/>
      <path id="Path_87" d="M317.52,407.929l-8.266,12.055-8.036,11.825a1.637,1.637,0,0,1-1.722.689c-1.952-.23-4.363-2.985-6.2-4.477l-.23-.115a5.931,5.931,0,0,1-.8-8.151l12.284-14.925h0l3.674-4.363a5.931,5.931,0,0,1,8.151-.8l.23.115A5.639,5.639,0,0,1,317.52,407.929Z" transform="translate(-183.312 -397.596)" fill="#ffcca9"/>
      <path id="Path_88" d="M308.159,419.154l-8.036,11.825a1.637,1.637,0,0,1-1.722.689L303.681,404C303.681,404.115,304.485,416.514,308.159,419.154Z" transform="translate(-182.216 -396.767)" fill="#f5b78e"/>
      <path id="Path_89" d="M280.212,497.326c-4.133,5.625-8.266,10.218-11.825,12.169a28.2,28.2,0,0,0-8.84,8.036c-2.755-1.263-5.97-2.87-9.07-4.363a5.2,5.2,0,0,1-2.411-6.888,5.97,5.97,0,0,1,2.181-2.3l.115-.115c3.444-1.952,7-9.07,7-9.07Z" transform="translate(-189.745 -383.324)" fill="#f5b78e"/>
      <path id="Path_90" d="M242.881,412l-2.181,8.725a4.144,4.144,0,0,0,3.1.115C244.948,420.151,245.981,412.459,242.881,412Z" transform="translate(-190.759 -395.583)" fill="#ffddc5"/>
      <path id="Rectangle_203" d="M259.333,397.7h42.019a10.29,10.29,0,0,1,10.332,10.333v97.355a10.29,10.29,0,0,1-10.332,10.333H259.333A10.29,10.29,0,0,1,249,505.388V408.033A10.29,10.29,0,0,1,259.333,397.7Z" transform="translate(-189.531 -397.7)" fill="#2b2b2b"/>
      <path id="Path_91" d="M308.185,406.385v99.192a6.125,6.125,0,0,1-6.085,6.085H257.785a6.125,6.125,0,0,1-6.085-6.085V406.385a6.125,6.125,0,0,1,6.085-6.085H302.1A6.051,6.051,0,0,1,308.185,406.385Z" transform="translate(-189.007 -397.315)" fill="#fff"/>
      <g id="_3911166" data-name="3911166" transform="translate(55.605 -1.983)">
        <rect id="Rectangle_262" data-name="Rectangle 262" width="25.332" height="3.604" transform="translate(33.67 40.104)" fill="#ffbc01"/>
        <rect id="Rectangle_263" data-name="Rectangle 263" width="18.343" height="3.604" transform="translate(40.667 45.495)" fill="#ffbc01"/>
        <rect id="Rectangle_264" data-name="Rectangle 264" width="14.738" height="14.738" rx="2.84" transform="translate(11.3 37.237)" fill="#ffbc01"/>
        <path id="Path_3993" data-name="Path 3993" d="M122.549,167.51l-4.309,6.9s1.066,1.849,4.309,1.849,4.309-1.849,4.309-1.849Z" transform="translate(-103.884 -127.852)" fill="#fff"/>
        <path id="Path_3994" data-name="Path 3994" d="M117.59,177.77a7.193,7.193,0,0,0,9.637,0" transform="translate(-103.744 -130.073)" fill="none" stroke="#fff" stroke-linecap="round" stroke-linejoin="round" stroke-width="0.97"/>
        <rect id="Rectangle_265" data-name="Rectangle 265" width="25.332" height="3.604" transform="translate(33.67 57.491)" fill="#ffbc01"/>
        <rect id="Rectangle_266" data-name="Rectangle 266" width="18.343" height="3.604" transform="translate(40.667 62.882)" fill="#ffbc01"/>
        <rect id="Rectangle_267" data-name="Rectangle 267" width="14.738" height="14.738" rx="2.84" transform="translate(11.3 54.623)" fill="#ffbc01"/>
        <rect id="Rectangle_268" data-name="Rectangle 268" width="25.332" height="3.604" transform="translate(33.67 22.726)" fill="#ffbc01"/>
        <rect id="Rectangle_269" data-name="Rectangle 269" width="18.343" height="3.604" transform="translate(40.667 28.108)" fill="#ffbc01"/>
        <rect id="Rectangle_270" data-name="Rectangle 270" width="14.738" height="14.738" rx="2.84" transform="translate(11.3 19.85)" fill="#ffbc01"/>
        <path id="Path_3995" data-name="Path 3995" d="M21.771,34.608H18.191L17.36,27.83H22.6Z" transform="translate(-1.312 -1.727)" fill="#fff"/>
        <path id="Path_3996" data-name="Path 3996" d="M22.982,26.977H16.69l.282-1.167h5.735Z" transform="translate(-1.167 -1.29)" fill="#fff"/>
        <path id="Path_3997" data-name="Path 3997" d="M124.338,146.961h-.588l.917-2.351a.274.274,0,0,1,.259-.18h1.269v.556h-1.081Z" transform="translate(-105.077 -122.856)" fill="#fff"/>
      </g>
      <path id="Rectangle_204" d="M268.685,398.3h18.139a3.039,3.039,0,0,1,2.985,2.985h0a3.039,3.039,0,0,1-2.985,2.985H268.685a3.039,3.039,0,0,1-2.985-2.985h0A3.039,3.039,0,0,1,268.685,398.3Z" transform="translate(-187.058 -397.611)" fill="#2b2b2b"/>
      <path id="Path_92" d="M312.721,447.736l-1.263.459-8.266,3.1c-.23.115-.344.115-.574.23a5.7,5.7,0,0,1-6.659-3.444l-.115-.344a5.7,5.7,0,0,1,3.215-7.233l7.692-2.87.574-.23,1.263-.459a5.694,5.694,0,0,1,7.233,3.215l.115.344A5.6,5.6,0,0,1,312.721,447.736Z" transform="translate(-182.645 -391.94)" fill="#ffcca9"/>
      <path id="Path_93" d="M305.751,447.359a29.725,29.725,0,0,1-5.166,1.607,2.442,2.442,0,0,1-1.722-.8,5.822,5.822,0,0,1-1.033-1.837,4.08,4.08,0,0,1-.23-1.148V443.8a1.461,1.461,0,0,1,.8-1.033h0a29.379,29.379,0,0,1,4.937-1.952,2.084,2.084,0,0,1,2.641,1.148l.23.459.918,2.411A2.081,2.081,0,0,1,305.751,447.359Z" transform="translate(-182.335 -391.333)" fill="#ffd3b6"/>
      <path id="Path_94" d="M305.648,447.181a29.726,29.726,0,0,1-5.166,1.607,2.442,2.442,0,0,1-1.722-.8c-.115-.115-.115-.344-.23-.459a4.079,4.079,0,0,1-.23-1.148V445a1.46,1.46,0,0,1,.8-1.033h0a29.383,29.383,0,0,1,4.937-1.952,2.277,2.277,0,0,1,2.066.344l.918,2.411A2.01,2.01,0,0,1,305.648,447.181Z" transform="translate(-182.231 -391.156)" fill="#f5b78e"/>
      <path id="Path_95" d="M308.74,457.411l-6.314,1.722a3.6,3.6,0,0,1-4.477-2.526l-.23-.689a3.6,3.6,0,0,1,2.526-4.477l6.314-1.722a3.6,3.6,0,0,1,4.477,2.526l.23.689A3.693,3.693,0,0,1,308.74,457.411Z" transform="translate(-182.339 -390.02)" fill="#ffcca9"/>
      <path id="Path_96" d="M305.144,456.774a26.729,26.729,0,0,1-4.363.918,2.159,2.159,0,0,1-1.722-1.378,4.813,4.813,0,0,1-.459-1.837,3.179,3.179,0,0,1,.115-1.033,1.035,1.035,0,0,1,.689-.689h0a25.693,25.693,0,0,1,4.248-1.148,1.643,1.643,0,0,1,2.067,1.148l.115.574.459,1.722a1.3,1.3,0,0,1-1.148,1.722Z" transform="translate(-182.187 -389.727)" fill="#ffd3b6"/>
      <path id="Path_97" d="M305.1,456.652a26.726,26.726,0,0,1-4.363.918,2.159,2.159,0,0,1-1.722-1.378,2.237,2.237,0,0,1-.115-.918,3.177,3.177,0,0,1,.115-1.033,1.035,1.035,0,0,1,.689-.689h0a25.7,25.7,0,0,1,4.248-1.148,2.1,2.1,0,0,1,1.952.689l.459,1.722a1.489,1.489,0,0,1-1.263,1.837Z" transform="translate(-182.142 -389.605)" fill="#f5b78e"/>
      <path id="Path_98" d="M216.7,522.31s13.088,12.514,21.928,17.336l6.659-4.707v7s13.088,2.3,17.221,0V522.884L225.655,504.4Z" transform="translate(-194.313 -381.902)" fill="#2b478b"/>
      <path id="Path_99" d="M265.9,541.871c-5.051,1.033-16.073-2.985-16.073-2.985l1.722-16.991-12.4,14.121c-6.314-2.3-16.188-8.5-21.928-12.284-2.87-1.837-4.822-3.215-4.822-3.215,8.266-13.318,16.532-25.717,16.532-25.717,2.411,4.822,8.151,9.07,14.466,12.514a127.851,127.851,0,0,0,22.158,8.955C265.555,526.372,265.9,541.871,265.9,541.871Z" transform="translate(-194.95 -383.324)" fill="#fff"/>
      <path id="Path_100" d="M312.559,437.5h-.115l-8.381,2.181a6.805,6.805,0,0,1-8.381-4.363l-.459-1.722A6.416,6.416,0,0,1,299.7,425.9l2.755-.689,5.625-1.378a6.805,6.805,0,0,1,8.381,4.363l.459,1.722A6.331,6.331,0,0,1,312.559,437.5Z" transform="translate(-182.714 -393.871)" fill="#ffcca9"/>
      <path id="Path_101" d="M308,434.8l-4.018,1.837h0c-.115,0-.344.115-.459.115h-.344a.643.643,0,0,1-.574-.689c0-.115,0-.115.115-.23a4.489,4.489,0,0,0,.23-2.755l-.115-.344h0l-.344-1.148a4.471,4.471,0,0,0-1.492-2.3l-.23-.23a1.04,1.04,0,0,1-.23-1.607,1.146,1.146,0,0,1,.574-.459h0l4.477-.689A2.086,2.086,0,0,1,308,427.912l.344,1.263.8,2.755C309.377,433.194,309.147,434.456,308,434.8Z" transform="translate(-181.942 -393.471)" fill="#ffd3b6"/>
      <path id="Path_102" d="M307.9,434.566l-4.018,1.837h0a4.074,4.074,0,0,1-.8.115.643.643,0,0,1-.574-.689c0-.115,0-.115.115-.23a4.49,4.49,0,0,0,.23-2.755l-.115-.344h0l-.344-1.148a4.472,4.472,0,0,0-1.492-2.3,1.054,1.054,0,0,1,.689-.459h0l4.477-.689a2.013,2.013,0,0,1,2.3,1.148l.8,2.755C309.281,432.959,309.051,434.222,307.9,434.566Z" transform="translate(-181.846 -393.236)" fill="#f5b78e"/>
      <path id="Path_103" d="M249.689,479.367s-1.837-15.843-3.444-18.943-3.1-9.3-.459-13.892S249.23,433.1,249.23,433.1c1.033,10.1-1.952,17.565.115,19.632.115.115.23,0,.459-.115Z" transform="translate(-190.22 -392.459)" fill="#f5b78e"/>
      <path id="Path_87-2" data-name="Path 87" d="M369.248,562.066a2.514,2.514,0,0,1-.344.574,25.71,25.71,0,0,1-11.251,12.284h-35.59c-2.3-1.607-14.58-9.873-19.632-16.073-1.033-1.263-4.592-11.366-7.462-20.091v-.115a10.679,10.679,0,0,1-.459-1.492c-1.837-5.74-3.444-10.677-3.674-11.71-.115-.689-.115-1.263-.23-1.952h0v-.23c-.115-3.674,0-10.792.23-16.532v-1.148c0-.918.115-1.837.115-2.641v-.23c.115-2.181.115-3.789.115-4.363V498a4.434,4.434,0,0,1,1.837-.344,6.671,6.671,0,0,1,3.789,1.378,8.647,8.647,0,0,1,2.066,3.444c0,.115,0,.115.115.23a22.661,22.661,0,0,1,.918,2.985c.115.23.115.459.23.689,1.378,5.166,2.411,11.251,2.87,12.858.8,2.641,10.907,14.351,11.481,15.04h0V515.914l-7.577-20.206-1.263-3.444-1.837-4.822L302.431,484l-.23-.689a75.639,75.639,0,0,1-4.363-8.61,42.385,42.385,0,0,1-2.181-6.429c-.115-.459-.23-1.033-.344-1.492a14.069,14.069,0,0,1-.23-2.181v-.574h0a6.5,6.5,0,0,1,.344-2.066,3.271,3.271,0,0,1,2.181-2.526,3.15,3.15,0,0,1,1.492-.23h.344a.422.422,0,0,1,.344.115.877.877,0,0,1,.574.23h0a2.682,2.682,0,0,1,.8.8s.459.574,1.148,1.607c.344.459.8,1.033,1.263,1.722.574.689,1.148,1.492,1.837,2.411a16.432,16.432,0,0,1,1.263,1.722c1.837,2.526,3.674,4.822,4.133,5.4,2.64,3.674,9.644,15.5,9.644,15.5l8.151.344a5.535,5.535,0,0,1,3.444,1.492c2.87,2.755,9.184,8.61,9.988,9.414,0,.344,4.937,2.641,8.61,4.707,2.755,1.148,7.807,5.166,7.807,5.166a10.494,10.494,0,0,1,2.3,2.755c1.607,3.559,5.74,31.916,8.266,49.137C369.248,561.836,369.248,561.951,369.248,562.066Z" transform="translate(-183.377 -388.594)" fill="#ffcca9"/>
      <path id="Path_105" d="M316.7,485s7.577,12.4,8.61,12.973,4.937,1.378,5.4,0S316.7,485,316.7,485Z" transform="translate(-179.507 -384.775)" fill="#f5b78e"/>
      <path id="Path_106" d="M352.132,504.773h0s-5.166-4.133-7.922-5.281c-3.444-1.952-7.922-4.018-8.61-4.592.8.918,6.429,7.348,8.61,7.807C346.277,503.166,350.64,504.314,352.132,504.773Z" transform="translate(-176.709 -383.309)" fill="#f5b78e"/>
      <path id="Path_107" d="M311.3,527.284V508.8s4.363,7.348,4.707,11.366S314.285,530.728,311.3,527.284Z" transform="translate(-180.307 -381.251)" fill="#f5b78e"/>
      <path id="Path_108" d="M297.787,466.792a29.657,29.657,0,0,1-2.181-4.248,1.992,1.992,0,0,1,.344-1.607,2.767,2.767,0,0,1,1.148-1.148,2.877,2.877,0,0,1,.8-.459,3.351,3.351,0,0,1,1.033-.23,1.417,1.417,0,0,1,.918.459h0a28.648,28.648,0,0,1,2.411,4.018,2.1,2.1,0,0,1-.344,2.526l-.344.23-1.607,1.148a1.531,1.531,0,0,1-2.066-.574C297.787,466.907,297.787,466.907,297.787,466.792Z" transform="translate(-182.637 -388.609)" fill="#ffd3b6"/>
      <path id="Path_109" d="M297.787,466.674a29.658,29.658,0,0,1-2.181-4.248,1.992,1.992,0,0,1,.344-1.607c.115-.115.23-.115.344-.23a2.878,2.878,0,0,1,.8-.459,3.353,3.353,0,0,1,1.033-.23,1.417,1.417,0,0,1,.918.459h0a28.645,28.645,0,0,1,2.411,4.018,2.51,2.51,0,0,1,.115,1.837l-1.607,1.148a1.531,1.531,0,0,1-2.066-.574C297.787,466.788,297.787,466.788,297.787,466.674Z" transform="translate(-182.637 -388.491)" fill="#ffc197"/>
      <path id="Path_110" d="M346.022,557.824l-14.7,7.577h-9.759c-2.3-1.607-14.58-9.873-19.632-16.073C300.9,548.065,297,536.7,293.9,527.4h0c.344,1.263,8.84,19.173,11.251,21.124s14.925,13.891,18.369,13.777,21.239-4.248,22.5-4.477Z" transform="translate(-182.883 -378.497)" fill="#f5b78e"/>
      <path id="Path_88-2" data-name="Path 88" d="M365.611,548.615c0,.115-.115.115-.115.23a2.51,2.51,0,0,1-.344.574A25.71,25.71,0,0,1,353.9,561.7c-11.366,6.2-27.094,4.363-38,1.722l1.148-.574a6.081,6.081,0,0,0,1.148-.689c.344-.115.574-.344.918-.459,1.722-.919,4.018-2.067,6.774-3.33h0c11.6-5.625,29.964-13.088,39.608-9.873A.112.112,0,0,0,365.611,548.615Z" transform="translate(-179.625 -375.488)" fill="#f2f7ff"/>
      <path id="Path_112" d="M290.83,499.738h0c.918-.344,2.181-.574,2.755.459.918,1.607-2.526,15.5-2.985,17.221Z" transform="translate(-183.371 -382.636)" fill="#f5b78e"/>
      <path id="Path_113" d="M291.044,493.2l-.344,8.381a4.555,4.555,0,0,0,2.755-.459C294.6,500.433,294.029,493.085,291.044,493.2Z" transform="translate(-183.357 -383.561)" fill="#ffddc5"/>
      <path id="Path_114" d="M265.278,540.157c-5.051,1.033-16.073-2.985-16.073-2.985l1.722-16.991-12.4,14.121c-6.314-2.3-16.188-8.5-21.928-12.284,14.925-1.607,26.176-16.417,26.176-16.417a127.842,127.842,0,0,0,22.158,8.955C264.933,524.773,265.278,540.157,265.278,540.157Z" transform="translate(-194.328 -381.725)" fill="#f2f7ff"/>
      <circle id="Ellipse_16" cx="2.067" cy="2.067" r="2.067" transform="translate(36.118 145.115) rotate(-89.47)" fill="#f99746"/>
    </g>
    <g id="_3864504" data-name="3864504" transform="translate(102.79 68.759)">
      <rect id="Rectangle_271" data-name="Rectangle 271" width="4.773" height="33.955" rx="0.81" transform="matrix(0.783, -0.622, 0.622, 0.783, 12.167, 89.914)" fill="#f9b361"/>
      <path id="Path_4000" data-name="Path 4000" d="M122.515,226.96l-19.467-24.482a1.715,1.715,0,0,1-.429-1.137,1.417,1.417,0,0,1,1.137.559l19.467,24.482a1.417,1.417,0,0,1,.3,1.231A1.716,1.716,0,0,1,122.515,226.96Z" transform="translate(-87.032 -113.901)" fill="#fff6f7" opacity="0.19"/>
      <rect id="Rectangle_272" data-name="Rectangle 272" width="4.773" height="33.955" rx="0.81" transform="translate(31.164 79.895) rotate(-25.36)" fill="#f9b361"/>
      <path id="Path_4001" data-name="Path 4001" d="M126.657,225.877l-13.407-28.324a1.715,1.715,0,0,1-.149-1.193,1.417,1.417,0,0,1,.97.8l13.407,28.361a1.417,1.417,0,0,1,0,1.268,1.716,1.716,0,0,1-.82-.914Z" transform="translate(-78.01 -118.207)" fill="#fff6f7" opacity="0.19"/>
      <rect id="Rectangle_273" data-name="Rectangle 273" width="4.773" height="33.955" rx="0.81" transform="translate(7.663 95.178) rotate(-47.76)" fill="#f9b361"/>
      <path id="Path_4002" data-name="Path 4002" d="M123.725,225.966l-23.159-21.033a1.715,1.715,0,0,1-.6-1.044,1.417,1.417,0,0,1,1.212.373l23.084,21.033a1.417,1.417,0,0,1,.485,1.175A1.715,1.715,0,0,1,123.725,225.966Z" transform="translate(-89.323 -111.714)" fill="#fff6f7" opacity="0.19"/>
      <rect id="Rectangle_274" data-name="Rectangle 274" width="4.773" height="33.955" rx="0.81" transform="translate(21.061 84.14) rotate(-33.02)" fill="#f9b361"/>
      <path id="Path_4003" data-name="Path 4003" d="M124.9,225.836l-17.061-26.291a1.715,1.715,0,0,1-.317-1.175,1.417,1.417,0,0,1,1.081.671l17.061,26.235a1.417,1.417,0,0,1,.168,1.268A1.715,1.715,0,0,1,124.9,225.836Z" transform="translate(-82.799 -116.469)" fill="#fff6f7" opacity="0.19"/>
      <rect id="Rectangle_275" data-name="Rectangle 275" width="4.773" height="33.955" rx="0.81" transform="matrix(0.674, -0.738, 0.738, 0.674, 6.964, 101.609)" fill="#f9b361"/>
      <path id="Path_4004" data-name="Path 4004" d="M123.3,229.482l-23.1-21.089a1.715,1.715,0,0,1-.6-1.044,1.417,1.417,0,0,1,1.212.373l23.1,21.107A1.417,1.417,0,0,1,124.4,230a1.715,1.715,0,0,1-1.1-.522Z" transform="translate(-89.643 -108.723)" fill="#fff6f7" opacity="0.19"/>
      <rect id="Rectangle_276" data-name="Rectangle 276" width="4.773" height="33.955" rx="0.81" transform="translate(26.76 84.48) rotate(-31.2)" fill="#f9b361"/>
      <path id="Path_4005" data-name="Path 4005" d="M127.1,226.612l-16.2-26.757a1.716,1.716,0,0,1-.28-1.175,1.417,1.417,0,0,1,1.063.709l16.2,26.757a1.417,1.417,0,0,1,.131,1.268,1.716,1.716,0,0,1-.914-.8Z" transform="translate(-80.13 -116.201)" fill="#fff6f7" opacity="0.19"/>
      <rect id="Rectangle_277" data-name="Rectangle 277" width="4.773" height="33.955" rx="0.81" transform="matrix(0.795, -0.606, 0.606, 0.795, 18.256, 90.093)" fill="#f9b361"/>
      <path id="Path_4006" data-name="Path 4006" d="M125.293,227.49,106.33,202.6a1.715,1.715,0,0,1-.41-1.137,1.417,1.417,0,0,1,1.119.6L126,226.949a1.417,1.417,0,0,1,.261,1.249,1.716,1.716,0,0,1-.97-.709Z" transform="translate(-84.179 -113.798)" fill="#fff6f7" opacity="0.19"/>
      <path id="Path_4007" data-name="Path 4007" d="M131.895,200.556a6.862,6.862,0,0,0-3.058,5.594,16,16,0,0,1-8.428,13.052,15.1,15.1,0,0,1-13.351.876,6.134,6.134,0,0,0-5.855.5l-.839.541A1.865,1.865,0,0,0,99.9,223.9l8.987,9.51,14.32,15.607a1.417,1.417,0,0,0,2.014.205l7.645-6.862a13.816,13.816,0,0,1,2.648-1.865l10.255-5.594a1.678,1.678,0,0,0,.653-2.107L140.472,217.3l-5.762-15.961a1.865,1.865,0,0,0-2.816-.783Z" transform="translate(-89.754 -114.888)" fill="#f94a3d"/>
      <path id="Path_4008" data-name="Path 4008" d="M113.752,221.246l-8.987-9.51a1.641,1.641,0,0,1-.448-1.156,6.247,6.247,0,0,0-3.114,1.007l-.839.541a1.865,1.865,0,0,0-.466,2.778l8.987,9.51,14.32,15.607a1.417,1.417,0,0,0,2.014.205l3.338-3a1.7,1.7,0,0,1-.5-.373Z" transform="translate(-89.754 -105.912)" fill="#ff7664"/>
      <path id="Path_4009" data-name="Path 4009" d="M102.334,195.431s-7.682.112-8.074-6.06a11.374,11.374,0,0,1,2.312-6.508,78.5,78.5,0,0,1,6-8.465c7.962-9.323,15.42-13.78,25.788-18.068,2.76-1.137,9.621-2.853,12.922-1.175a5.985,5.985,0,0,1,2.555,2.778,5.594,5.594,0,0,1,.578,2.834c-.3,3.356-4.139,5.743-6.414,7.608-3.17,2.592-6.414,5.109-9.659,7.608q-10.889,8.372-21.965,16.5l-2.182,1.6C103.807,194.368,102.856,195.412,102.334,195.431Z" transform="translate(-94.26 -154.44)" fill="#ffac79"/>
      <path id="Path_4010" data-name="Path 4010" d="M102.556,192.389l2.182-1.6q11.057-8.148,21.965-16.5c3.244-2.5,6.489-5.016,9.659-7.608,2.275-1.865,6.116-4.251,6.414-7.608a5.277,5.277,0,0,0-.354-2.275c-3.487-1.137-9.6.429-12.157,1.492-10.367,4.289-17.826,8.689-25.788,18.068a78.531,78.531,0,0,0-6,8.465,11.374,11.374,0,0,0-2.312,6.508,6.3,6.3,0,0,0,.317,1.566,11.86,11.86,0,0,0,4.214.858C101.213,193.732,102.164,192.688,102.556,192.389Z" transform="translate(-92.617 -152.76)" fill="#f97762" opacity="0.25"/>
      <path id="Path_4011" data-name="Path 4011" d="M98.36,191.141a1.566,1.566,0,0,0,.82,1.417c4.923,2.722,33.861,17.136,47.026,23.681a3.524,3.524,0,0,0,5.016-3.878c-3.189-15.309-10.647-50.158-12.157-53.57C137.107,154.483,99.013,171.656,98.36,191.141Z" transform="translate(-90.715 -151.269)" fill="#ffd98b"/>
      <path id="Path_4012" data-name="Path 4012" d="M98.48,174.984a1.309,1.309,0,0,1,.112-.634C98.555,174.574,98.517,174.779,98.48,174.984Z" transform="translate(-90.611 -137.237)" fill="#ffd98b"/>
      <path id="Path_4013" data-name="Path 4013" d="M98.41,175.484v-.634A2.4,2.4,0,0,1,98.41,175.484Z" transform="translate(-90.672 -136.805)" fill="#ffd98b"/>
      <path id="Path_4014" data-name="Path 4014" d="M98.57,174.5a2.823,2.823,0,0,1,.149-.634C98.663,174.112,98.626,174.28,98.57,174.5Z" transform="translate(-90.534 -137.652)" fill="#ffd98b"/>
      <path id="Path_4015" data-name="Path 4015" d="M98.69,174.033a2.154,2.154,0,0,1,.186-.653A6.663,6.663,0,0,1,98.69,174.033Z" transform="translate(-90.43 -138.076)" fill="#ffd98b"/>
      <path id="Path_4016" data-name="Path 4016" d="M98.36,176.254v-.914Q98.379,175.788,98.36,176.254Z" transform="translate(-90.715 -136.381)" fill="#ffd98b"/>
      <path id="Path_4017" data-name="Path 4017" d="M98.84,173.581l.242-.671Z" transform="translate(-90.3 -138.482)" fill="#ffd98b"/>
      <path id="Path_4018" data-name="Path 4018" d="M99.4,172.236l.373-.746Z" transform="translate(-89.816 -139.71)" fill="#ffd98b"/>
      <path id="Path_4019" data-name="Path 4019" d="M100.46,170.46l.578-.82Z" transform="translate(-88.899 -141.31)" fill="#ffd98b"/>
      <path id="Path_4020" data-name="Path 4020" d="M99.89,171.363l.485-.783Z" transform="translate(-89.392 -140.497)" fill="#ffd98b"/>
      <path id="Path_4021" data-name="Path 4021" d="M100.17,170.9l.522-.8Z" transform="translate(-89.15 -140.912)" fill="#ffd98b"/>
      <path id="Path_4022" data-name="Path 4022" d="M99.54,188.324a1.566,1.566,0,0,0,.82,1.417c4.923,2.722,33.861,17.136,47.026,23.681a3.45,3.45,0,0,0,2.853.131,3.543,3.543,0,0,0,0-1.212c-3.226-15.29-10.684-50.14-12.195-53.552S112.108,165.5,101.834,179.6c.615-.839,1.268-1.66,1.976-2.461a20.809,20.809,0,0,0-4.27,11.188Z" transform="translate(-89.695 -151.268)" fill="#f9b361"/>
      <path id="Path_4023" data-name="Path 4023" d="M124.419,189.41h0Z" transform="translate(-68.313 -124.216)" fill="#ffd98b"/>
      <path id="Path_4024" data-name="Path 4024" d="M99.19,172.677l.336-.727Z" transform="translate(-89.997 -139.313)" fill="#ffd98b"/>
      <path id="Path_4025" data-name="Path 4025" d="M99.64,171.793l.429-.783Z" transform="translate(-89.608 -140.125)" fill="#ffd98b"/>
      <path id="Path_4026" data-name="Path 4026" d="M99,173.139l.28-.709Z" transform="translate(-90.162 -138.898)" fill="#ffd98b"/>
      <path id="Path_4027" data-name="Path 4027" d="M126.2,189l-.242.186Z" transform="translate(-66.852 -124.571)" fill="#ffd98b"/>
      <path id="Path_4028" data-name="Path 4028" d="M125.436,189.41h0Z" transform="translate(-67.466 -124.216)" fill="#ffd98b"/>
      <path id="Path_4029" data-name="Path 4029" d="M124.87,189.48Z" transform="translate(-67.794 -124.156)" fill="#ffd98b"/>
      <path id="Path_4030" data-name="Path 4030" d="M126.031,189.16l-.261.168Z" transform="translate(-67.016 -124.432)" fill="#ffd98b"/>
      <path id="Path_4031" data-name="Path 4031" d="M125.11,189.46Z" transform="translate(-67.587 -124.173)" fill="#ffd98b"/>
      <path id="Path_4032" data-name="Path 4032" d="M126.372,188.85l-.242.242Z" transform="translate(-66.705 -124.701)" fill="#ffd98b"/>
      <path id="Path_4033" data-name="Path 4033" d="M127.11,187.85a3.468,3.468,0,0,1-.82,1.865,3.45,3.45,0,0,0,.82-1.865Z" transform="translate(-66.566 -125.565)" fill="#ffd98b"/>
      <path id="Path_4034" data-name="Path 4034" d="M125.89,189.27l-.41.168Z" transform="translate(-67.267 -124.337)" fill="#ffd98b"/>
      <path id="Path_4035" data-name="Path 4035" d="M124.61,189.46Z" transform="translate(-68.019 -124.173)" fill="#ffd98b"/>
      <path id="Path_4036" data-name="Path 4036" d="M98.4,175.382v.914a1.509,1.509,0,0,0,0,.429,1.511,1.511,0,0,1,0-.429A5.606,5.606,0,0,1,98.4,175.382Z" transform="translate(-90.698 -136.442)" fill="#ffd98b"/>
      <path id="Path_4037" data-name="Path 4037" d="M99.41,172.217l.373-.727Z" transform="translate(-89.807 -139.71)" fill="#ffd98b"/>
      <path id="Path_4038" data-name="Path 4038" d="M98.61,176.45a1.639,1.639,0,0,0,.354.261l.671.373-.671-.373a1.638,1.638,0,0,1-.354-.261Z" transform="translate(-90.499 -135.422)" fill="#ffd98b"/>
      <path id="Path_4039" data-name="Path 4039" d="M126.28,189.685a3.45,3.45,0,0,0,.82-1.865h0a3.468,3.468,0,0,1-.82,1.865Z" transform="translate(-66.575 -125.591)" fill="#ffd98b"/>
      <path id="Path_4040" data-name="Path 4040" d="M125.74,189.346l.3-.186-.242.149Z" transform="translate(-67.042 -124.433)" fill="#ffd98b"/>
      <path id="Path_4041" data-name="Path 4041" d="M125.336,189.492h-.186l.466-.112h0Z" transform="translate(-67.552 -124.242)" fill="#ffd98b"/>
      <path id="Path_4042" data-name="Path 4042" d="M100.17,170.9l.522-.8Z" transform="translate(-89.15 -140.912)" fill="#ffd98b"/>
      <path id="Path_4043" data-name="Path 4043" d="M126.372,188.85l-.242.242Z" transform="translate(-66.705 -124.701)" fill="#ffd98b"/>
      <path id="Path_4044" data-name="Path 4044" d="M98.46,174.81v.056Z" transform="translate(-90.629 -136.84)" fill="#ffd98b"/>
      <path id="Path_4045" data-name="Path 4045" d="M98.691,174.928a2.823,2.823,0,0,1,.149-.634v-.261a2.154,2.154,0,0,1,.186-.653,17.661,17.661,0,0,0-.6,2.424,1.2,1.2,0,0,1,.112-.615Z" transform="translate(-90.655 -138.076)" fill="#ffd98b"/>
      <path id="Path_4046" data-name="Path 4046" d="M124.956,189.48h-.186a3.413,3.413,0,0,0,.653,0Z" transform="translate(-67.881 -124.156)" fill="#ffd98b"/>
      <path id="Path_4047" data-name="Path 4047" d="M100.46,170.46l.578-.82Z" transform="translate(-88.899 -141.31)" fill="#ffd98b"/>
      <path id="Path_4048" data-name="Path 4048" d="M125.89,189.27l-.41.168Z" transform="translate(-67.267 -124.337)" fill="#ffd98b"/>
      <path id="Path_4049" data-name="Path 4049" d="M100.393,170.53l-.5.839.485-.783Z" transform="translate(-89.392 -140.54)" fill="#ffd98b"/>
      <path id="Path_4050" data-name="Path 4050" d="M100.77,170.185l.9-1.175Z" transform="translate(-88.631 -141.855)" fill="#ffd98b"/>
      <path id="Path_4051" data-name="Path 4051" d="M126.2,189l-.242.186Z" transform="translate(-66.852 -124.571)" fill="#ffd98b"/>
      <path id="Path_4052" data-name="Path 4052" d="M100.106,171l-.466.839.429-.764Z" transform="translate(-89.608 -140.134)" fill="#ffd98b"/>
      <path id="Path_4053" data-name="Path 4053" d="M124.61,189.46Z" transform="translate(-68.019 -124.173)" fill="#ffd98b"/>
      <path id="Path_4054" data-name="Path 4054" d="M99.121,172.91a2.553,2.553,0,0,1-.261.746h0Z" transform="translate(-90.283 -138.482)" fill="#ffd98b"/>
      <path id="Path_4055" data-name="Path 4055" d="M124.419,189.41h0Z" transform="translate(-68.313 -124.216)" fill="#ffd98b"/>
      <path id="Path_4056" data-name="Path 4056" d="M99.34,172.845v-.168l.336-.727q-.41.858-.746,1.734v-.149Z" transform="translate(-90.222 -139.313)" fill="#ffd98b"/>
      <circle id="Ellipse_104" data-name="Ellipse 104" cx="8.857" cy="8.857" r="8.857" transform="matrix(0.997, -0.08, 0.08, 0.997, 25.551, 16.688)" fill="#ff5e4d"/>
      <circle id="Ellipse_105" data-name="Ellipse 105" cx="6.47" cy="6.47" r="6.47" transform="matrix(0.997, -0.08, 0.08, 0.997, 28.082, 18.395)" fill="#f94a3d"/>
      <g id="Group_1097" data-name="Group 1097" transform="translate(13.815 10.277)" opacity="0.23">
        <circle id="Ellipse_106" data-name="Ellipse 106" cx="0.932" cy="0.932" r="0.932" transform="translate(40.294 41.757) rotate(-32.95)" fill="#ffa35d"/>
        <circle id="Ellipse_107" data-name="Ellipse 107" cx="0.932" cy="0.932" r="0.932" transform="translate(3.58 19.172) rotate(-32.95)" fill="#ffa35d"/>
        <circle id="Ellipse_108" data-name="Ellipse 108" cx="0.932" cy="0.932" r="0.932" transform="translate(30.265 33.162) rotate(-32.95)" fill="#ffa35d"/>
        <circle id="Ellipse_109" data-name="Ellipse 109" cx="0.615" cy="0.615" r="0.615" transform="translate(39.829 45.059) rotate(-32.95)" fill="#ffa35d"/>
        <circle id="Ellipse_110" data-name="Ellipse 110" cx="0.242" cy="0.242" r="0.242" transform="translate(28.613 37.381) rotate(-32.95)" fill="#ffa35d"/>
        <circle id="Ellipse_111" data-name="Ellipse 111" cx="0.28" cy="0.28" r="0.28" transform="translate(30.58 9.737) rotate(-32.95)" fill="#ffa35d"/>
        <circle id="Ellipse_112" data-name="Ellipse 112" cx="0.28" cy="0.28" r="0.28" transform="translate(7.238 31.573) rotate(-32.95)" fill="#ffa35d"/>
        <circle id="Ellipse_113" data-name="Ellipse 113" cx="0.28" cy="0.28" r="0.28" transform="translate(30.219 44.39) rotate(-32.95)" fill="#ffa35d"/>
        <circle id="Ellipse_114" data-name="Ellipse 114" cx="0.28" cy="0.28" r="0.28" transform="translate(11.06 12.052) rotate(-32.95)" fill="#ffa35d"/>
        <circle id="Ellipse_115" data-name="Ellipse 115" cx="0.28" cy="0.28" r="0.28" transform="translate(0 22.782) rotate(-32.95)" fill="#ffa35d"/>
        <circle id="Ellipse_116" data-name="Ellipse 116" cx="0.28" cy="0.28" r="0.28" transform="translate(33.241 0.923) rotate(-32.95)" fill="#ffa35d"/>
        <circle id="Ellipse_117" data-name="Ellipse 117" cx="0.634" cy="0.634" r="0.634" transform="translate(36.388 43.138) rotate(-32.95)" fill="#ffa35d"/>
        <circle id="Ellipse_118" data-name="Ellipse 118" cx="0.317" cy="0.317" r="0.317" transform="matrix(0.839, -0.544, 0.544, 0.839, 6.373, 25.486)" fill="#ffa35d"/>
        <circle id="Ellipse_119" data-name="Ellipse 119" cx="0.615" cy="0.615" r="0.615" transform="translate(27.14 0.669) rotate(-32.95)" fill="#ffa35d"/>
      </g>
      <path id="Path_4057" data-name="Path 4057" d="M120.721,181.03a7.086,7.086,0,0,0,8.708,6.377c-.932-4.419-1.976-9.211-3-13.947a7.142,7.142,0,0,0-5.706,7.57Z" transform="translate(-71.402 -138.007)" fill="#ff5e4d"/>
      <path id="Path_4058" data-name="Path 4058" d="M121.667,179.756a4.96,4.96,0,0,0,6.1,4.475c-.653-3.1-1.38-6.452-2.107-9.771a5,5,0,0,0-3.99,5.3Z" transform="translate(-70.577 -137.142)" fill="#f94a3d"/>
      <path id="Path_4059" data-name="Path 4059" d="M106.295,176.493a1.864,1.864,0,0,1-.8-.186,2.592,2.592,0,0,1-1.175-3.319,1.753,1.753,0,0,1,2.405-.858,2.48,2.48,0,0,1,1.249,1.436,2.163,2.163,0,0,1-1.081,2.834h0a1.716,1.716,0,0,1-.6.093Zm-.392-3.151h-.131a.429.429,0,0,0-.224.224,1.212,1.212,0,0,0,.522,1.454.41.41,0,0,0,.317,0c.242,0,.392-.559.224-1.044a1.1,1.1,0,0,0-.522-.634.485.485,0,0,0-.186,0Z" transform="translate(-85.747 -139.324)" fill="#390028"/>
      <path id="Path_4060" data-name="Path 4060" d="M117.971,178.841a2.275,2.275,0,0,1-2.051-1.417,1.865,1.865,0,0,1,0-1.66,1.734,1.734,0,0,1,1.007-.82,2.219,2.219,0,0,1,2.629,1.324,1.865,1.865,0,0,1-1.081,2.48h0A1.865,1.865,0,0,1,117.971,178.841Zm-.41-2.741h-.112a.391.391,0,0,0-.224.205.858.858,0,0,0,0,.709.8.8,0,0,0,.839.578c.261-.075.41-.485.224-.914a.914.914,0,0,0-.709-.5Z" transform="translate(-75.701 -136.788)" fill="#390028"/>
      <path id="Path_4061" data-name="Path 4061" d="M122.37,185.473a1.623,1.623,0,0,1-.727-.168,1.566,1.566,0,0,1-.783-.9,1.212,1.212,0,0,1,.783-1.548,1.548,1.548,0,0,1,1.193.112,1.4,1.4,0,0,1,.727,1.865h0a1.249,1.249,0,0,1-.876.653Z" transform="translate(-71.317 -129.938)" fill="#390028"/>
      <path id="Path_4062" data-name="Path 4062" d="M120.8,165.551a2.591,2.591,0,0,1-1.156-.28,2,2,0,1,1,1.771-3.506,2.536,2.536,0,0,1,1.175,1.175,1.865,1.865,0,0,1,0,1.622h0A1.865,1.865,0,0,1,120.8,165.551Zm-.578-2.685a.559.559,0,0,0-.522.224c-.112.242,0,.671.559.914s.951.149,1.063-.093h0a.485.485,0,0,0,0-.392A1.156,1.156,0,0,0,120.8,163a1.231,1.231,0,0,0-.578-.112Z" transform="translate(-73.547 -148.465)" fill="#390028"/>
      <path id="Path_4063" data-name="Path 4063" d="M113.1,177.54a7.589,7.589,0,0,0-6.694,5.594l13.332,6.675a7.589,7.589,0,0,0-6.619-12.213Z" transform="translate(-83.755 -134.479)" fill="#ff5e4d"/>
      <path id="Path_4064" data-name="Path 4064" d="M112.536,178.59a5.836,5.836,0,0,0-5.146,4.251l10.237,5.128a5.836,5.836,0,0,0-5.09-9.323Z" transform="translate(-82.908 -133.572)" fill="#f94a3d"/>
      <path id="Path_4065" data-name="Path 4065" d="M0,.037H29.181v12.12a5.351,5.351,0,0,1-5.351,5.351H4.848A4.867,4.867,0,0,1,0,12.624V.037Z" transform="translate(14.469 149.306) rotate(23.32)" fill="#390028"/>
      <ellipse id="Ellipse_120" data-name="Ellipse 120" cx="4.811" cy="14.581" rx="4.811" ry="14.581" transform="translate(12.503 153.795) rotate(-66.68)" fill="#f8f8ee"/>
      <ellipse id="Ellipse_121" data-name="Ellipse 121" cx="1.436" cy="4.363" rx="1.436" ry="4.363" transform="translate(23.416 154.275) rotate(-66.68)" fill="#f94a3d"/>
      <path id="Path_4066" data-name="Path 4066" d="M112.172,237.753a.242.242,0,0,1-.224-.168,2.4,2.4,0,0,0-.783-1.361,1.007,1.007,0,0,0-.765-.149.69.69,0,0,0-.466.317.242.242,0,0,1-.242.112.224.224,0,0,1-.186-.205,1.865,1.865,0,0,0-.149-.615c0-.131-.224-.242-.336-.224s-.224.112-.354.317a3.17,3.17,0,0,0-.466,1.007.231.231,0,1,1-.447-.112,3.58,3.58,0,0,1,.522-1.156,1.063,1.063,0,0,1,.671-.5.82.82,0,0,1,.82.447,1.454,1.454,0,0,1,.131.336,1.269,1.269,0,0,1,.41-.168,1.473,1.473,0,0,1,1.119.224,2.872,2.872,0,0,1,.97,1.622.224.224,0,0,1-.168.28Z" transform="translate(-82.6 -84.792)" fill="#390028" opacity="0.11"/>
      <g id="Group_1098" data-name="Group 1098" transform="translate(17.692 149.508)" opacity="0.11">
        <path id="Path_4067" data-name="Path 4067" d="M106.179,235.564h-.186a.473.473,0,1,1,.634-.242.466.466,0,0,1-.261.261ZM106.179,235.1Zm0,0Z" transform="translate(-102.074 -234.628)" fill="#390028"/>
        <path id="Path_4068" data-name="Path 4068" d="M104.218,235.633h-.186a.5.5,0,1,1,.373-.019ZM104.218,235.166ZM104.218,235.166Z" transform="translate(-103.748 -234.548)" fill="#390028"/>
        <path id="Path_4069" data-name="Path 4069" d="M105.673,237.014a.656.656,0,1,1,.28-.037Zm0-.988a.214.214,0,1,0,.093,0Z" transform="translate(-102.706 -233.822)" fill="#390028"/>
      </g>
      <g id="Group_1099" data-name="Group 1099" transform="translate(32.51 157.772)" opacity="0.11">
        <path id="Path_4070" data-name="Path 4070" d="M114.215,239.974h-.186a.476.476,0,1,1,.373-.876.466.466,0,0,1,.261.261.485.485,0,0,1-.261.615ZM114.215,239.507Zm0,0Z" transform="translate(-109.917 -239.06)" fill="#390028"/>
        <path id="Path_4071" data-name="Path 4071" d="M112.264,240.075h-.186a.476.476,0,1,1,.634-.242h0A.485.485,0,0,1,112.264,240.075Zm.224-.373Zm-.224-.112Z" transform="translate(-111.695 -239.012)" fill="#390028"/>
        <path id="Path_4072" data-name="Path 4072" d="M113.723,241.424a.727.727,0,1,1,.671-.429A.727.727,0,0,1,113.723,241.424Zm0-.988a.289.289,0,1,0,.112.037Z" transform="translate(-110.563 -238.273)" fill="#390028"/>
      </g>
      <path id="Path_4073" data-name="Path 4073" d="M256.394,195.87l-59.146-21.741a2.8,2.8,0,0,1-1.659-3.58h0a2.8,2.8,0,0,1,3.58-1.659l59.146,21.741a2.8,2.8,0,0,1,1.66,3.58h0a2.8,2.8,0,0,1-3.58,1.659Z" transform="translate(-6.796 -142.106)" fill="#470b1b"/>
      <path id="Path_4074" data-name="Path 4074" d="M255.619,192.181l-12.064-4.438a1.417,1.417,0,0,0-.727,0l-5.221.97a1.473,1.473,0,0,1-1.287-.429l-4.307-4.643a1.436,1.436,0,0,0-.541-.354l-33.19-12.176a1.044,1.044,0,0,1-.783-1.212l1.044-2.816a1.044,1.044,0,0,1,1.38-.41l57.318,21.07a1.044,1.044,0,0,1,.783,1.212l-1.044,2.816a1.044,1.044,0,0,1-1.361.41Z" transform="translate(-5.014 -143.974)" fill="#ffd98b"/>
      <rect id="Rectangle_278" data-name="Rectangle 278" width="61.159" height="4.139" rx="0.75" transform="translate(191.335 32.103) rotate(20.18)" fill="#f94a3d"/>
      <path id="Path_4075" data-name="Path 4075" d="M253.395,193.621l-56.255-20.679a.615.615,0,0,1-.373-.783h0a.615.615,0,0,1,.783-.373L253.8,192.465a.615.615,0,0,1,.373.783h0a.615.615,0,0,1-.783.373Z" transform="translate(-5.662 -139.484)" fill="#ec6565" opacity="0.74"/>
      <path id="Path_4076" data-name="Path 4076" d="M242.425,202.967,201.851,188.05c-5.09-1.865-8.111-6.4-6.75-10.106l1.7-4.624L255.757,195.1l-1.678,4.624C252.718,203.359,247.5,204.832,242.425,202.967Z" transform="translate(-7.353 -138.128)" fill="#ffac79"/>
      <path id="Path_4077" data-name="Path 4077" d="M255.737,195.1,252.7,193.98c-1.865,3.058-6.563,4.177-11.188,2.443l-34.085-12.586c-4.662-1.715-7.589-5.594-6.992-9.174l-3.617-1.342-1.7,4.624c-1.343,3.729,1.678,8.223,6.75,10.106l40.574,14.917c5.09,1.865,10.293.392,11.654-3.3Z" transform="translate(-7.332 -138.128)" fill="#f97762" opacity="0.25"/>
      <path id="Path_4078" data-name="Path 4078" d="M259.888,196.43,197.2,173.383h0c4.475-12.195,18.646-18.217,31.7-13.444l15.644,5.743c13.052,4.773,19.877,18.534,15.4,30.729Z" transform="translate(-5.256 -151.113)" fill="#ffb6af"/>
      <path id="Path_4079" data-name="Path 4079" d="M259.888,196.43,197.2,173.383h0c4.475-12.195,18.646-18.217,31.7-13.444l15.644,5.743c13.052,4.773,19.877,18.534,15.4,30.729Z" transform="translate(-5.256 -151.113)" fill="#fff6f7" opacity="0.08"/>
      <path id="Path_4080" data-name="Path 4080" d="M259.888,196.43,197.2,173.383h0c4.475-12.195,18.646-18.217,31.7-13.444l15.644,5.743c13.052,4.773,19.877,18.534,15.4,30.729Z" transform="translate(-5.256 -151.113)" fill="#ffac79"/>
      <path id="Path_4081" data-name="Path 4081" d="M253.039,170.794l.112.149a8.279,8.279,0,0,1-9.659,12.512L215.43,173.2a7.03,7.03,0,0,1-1.193-12.642,19.561,19.561,0,0,1,6.041-2.238,23.662,23.662,0,0,0-23.028,15.066l62.688,23.047A23.55,23.55,0,0,0,253.039,170.794Z" transform="translate(-5.213 -151.115)" fill="#f97762" opacity="0.25"/>
      <path id="Path_4082" data-name="Path 4082" d="M218.334,164.954a4.01,4.01,0,0,1-1.081-.168c-.41-.13-1.771-.6-1.529-1.38s1.622-.466,2.032-.336,1.771.6,1.529,1.38c0,.224-.28.5-.914.5Z" transform="translate(10.734 -147.141)" fill="#f8f8ee"/>
      <path id="Path_4083" data-name="Path 4083" d="M223.014,168.291a3.991,3.991,0,0,1-1.081-.168c-.41-.131-1.771-.6-1.529-1.38,0-.224.28-.5.914-.5a4.606,4.606,0,0,1,1.119.168c.41.131,1.771.6,1.529,1.38,0,.224-.28.5-.914.5Z" transform="translate(14.781 -144.25)" fill="#f8f8ee"/>
      <path id="Path_4084" data-name="Path 4084" d="M222.692,165.121a4.157,4.157,0,0,1-1.1-.186c-.41-.131-1.771-.6-1.529-1.38a.634.634,0,0,1,.317-.392,2.759,2.759,0,0,1,1.715,0c.41.13,1.771.578,1.529,1.38h0C223.531,165.009,223.121,165.121,222.692,165.121Z" transform="translate(14.487 -147.028)" fill="#f8f8ee"/>
      <path id="Path_4085" data-name="Path 4085" d="M213.112,164.7a4.01,4.01,0,0,1-1.081-.168c-.41-.131-1.753-.6-1.529-1.38,0-.224.28-.5.914-.5a4.4,4.4,0,0,1,1.119.168c.41.131,1.771.6,1.529,1.38,0,.224-.28.5-.914.5Z" transform="translate(6.223 -147.354)" fill="#f8f8ee"/>
      <path id="Path_4086" data-name="Path 4086" d="M214.444,161.928a3.989,3.989,0,0,1-1.081-.168c-.41-.13-1.771-.6-1.529-1.38a.634.634,0,0,1,.336-.317,2.741,2.741,0,0,1,1.715,0c.41.131,1.771.6,1.529,1.38,0,.224-.28.5-.914.5Z" transform="translate(7.371 -149.709)" fill="#f8f8ee"/>
      <g id="Group_1100" data-name="Group 1100" transform="translate(-47.526 -0.455)">
        <rect id="Rectangle_279" data-name="Rectangle 279" width="32.724" height="13.444" rx="2.3" transform="matrix(0.939, -0.345, 0.345, 0.939, 219.853, 102.593)" fill="#fff"/>
        <path id="Path_4087" data-name="Path 4087" d="M217.464,214.421h-.093a2.442,2.442,0,0,1-1.119-1.026,1.025,1.025,0,0,1,0-.839.708.708,0,0,1,.447-.392.765.765,0,0,1,.448,0,1.025,1.025,0,0,1,0-.242.988.988,0,0,1,1.082-.709,2.051,2.051,0,0,1,.746.261,1.66,1.66,0,0,0,.578.205.235.235,0,0,1-.056.466,2.052,2.052,0,0,1-.746-.261,1.66,1.66,0,0,0-.578-.205.522.522,0,0,0-.578.336.969.969,0,0,0,.149.578.242.242,0,0,1-.373.28.8.8,0,0,0-.578-.28.242.242,0,0,0-.149.131.578.578,0,0,0,0,.466,2,2,0,0,0,.895.8.229.229,0,1,1-.093.447Z" transform="translate(11.138 -105.372)" fill="#390028" opacity="0.11"/>
        <path id="Path_4088" data-name="Path 4088" d="M216.775,215.189h0a1.864,1.864,0,0,1-.82-.709.839.839,0,0,1-.149-.634.69.69,0,0,1,.765-.5,1.659,1.659,0,0,1,.709.3.23.23,0,1,1-.242.392,1.25,1.25,0,0,0-.5-.224c-.131,0-.242,0-.261.149a.448.448,0,0,0,0,.28,1.4,1.4,0,0,0,.615.522.224.224,0,0,1,.131.3A.242.242,0,0,1,216.775,215.189Z" transform="translate(10.82 -103.529)" fill="#390028" opacity="0.11"/>
        <path id="Path_4089" data-name="Path 4089" d="M221.035,210.928h-.112a.9.9,0,0,1-.429-.895.839.839,0,0,1,.69-.69,1.137,1.137,0,0,1,.727.168,2.647,2.647,0,0,1,.8.671.242.242,0,0,1-.373.28,2.162,2.162,0,0,0-.653-.559.746.746,0,0,0-.429-.112.373.373,0,0,0-.3.3.448.448,0,0,0,.205.429.224.224,0,0,1-.112.429Z" transform="translate(14.876 -106.988)" fill="#390028" opacity="0.11"/>
        <path id="Path_4090" data-name="Path 4090" d="M221.979,213.72a.242.242,0,0,1-.186-.112,6.97,6.97,0,0,1-.578-1.063.936.936,0,0,1,0-.709.559.559,0,0,1,.373-.131h.429a.876.876,0,0,1,.242-.727,1.343,1.343,0,0,1,1.287-.224l.429.131a3.152,3.152,0,0,0,.634.168.235.235,0,1,1-.056.466,3.5,3.5,0,0,1-.727-.187l-.392-.131a.951.951,0,0,0-.858.112.429.429,0,0,0-.093.392.28.28,0,0,0,0,.168h0a.242.242,0,0,1,.112.3.224.224,0,0,1-.3.131h-.112a1.511,1.511,0,0,0-.746-.131h0v.186a6.489,6.489,0,0,0,.541.988.242.242,0,0,1,0,.317Z" transform="translate(15.443 -105.826)" fill="#390028" opacity="0.11"/>
        <path id="Path_4091" data-name="Path 4091" d="M225.86,210.348a.224.224,0,0,1-.205-.112,3.43,3.43,0,0,1-.392-1.156,1.044,1.044,0,0,1,.131-.8.8.8,0,0,1,.876-.224l.317.149a1.192,1.192,0,0,1,.168-.373,1.417,1.417,0,0,1,.932-.578,2.685,2.685,0,0,1,1.734.485.224.224,0,1,1-.317.317,2.386,2.386,0,0,0-1.436-.429.951.951,0,0,0-.615.392.653.653,0,0,0-.112.5.224.224,0,0,1-.373.224,1.659,1.659,0,0,0-.5-.336.354.354,0,0,0-.373,0,.6.6,0,0,0,0,.447,2.984,2.984,0,0,0,.336,1.007.242.242,0,0,1,0,.317Z" transform="translate(18.983 -108.794)" fill="#390028" opacity="0.11"/>
        <path id="Path_4092" data-name="Path 4092" d="M227.729,210.889a.224.224,0,0,1-.168,0,2.35,2.35,0,0,1-.541-1.026.615.615,0,0,1,.69-.876,3.058,3.058,0,0,1,1.4.615.242.242,0,0,1-.28.373,2.592,2.592,0,0,0-1.175-.522h-.149v.317a1.864,1.864,0,0,0,.429.82.224.224,0,0,1-.168.392Z" transform="translate(20.47 -107.303)" fill="#390028" opacity="0.11"/>
        <rect id="Rectangle_280" data-name="Rectangle 280" width="38.243" height="11.188" rx="2.3" transform="matrix(0.939, -0.345, 0.345, 0.939, 214.691, 96.583)" fill="#390028"/>
        <rect id="Rectangle_281" data-name="Rectangle 281" width="2.722" height="11.188" transform="matrix(0.939, -0.345, 0.345, 0.939, 219.227, 94.924)" fill="#f94a3d" opacity="0.3"/>
        <rect id="Rectangle_282" data-name="Rectangle 282" width="2.722" height="11.188" transform="matrix(0.939, -0.345, 0.345, 0.939, 227.007, 92.044)" fill="#f94a3d" opacity="0.3"/>
        <rect id="Rectangle_283" data-name="Rectangle 283" width="2.722" height="11.188" transform="matrix(0.939, -0.345, 0.345, 0.939, 235.212, 89.043)" fill="#f94a3d" opacity="0.3"/>
        <rect id="Rectangle_284" data-name="Rectangle 284" width="2.722" height="11.188" transform="matrix(0.939, -0.345, 0.345, 0.939, 243.266, 86.071)" fill="#f94a3d" opacity="0.3"/>
      </g>
      <path id="Path_4093" data-name="Path 4093" d="M240.08,244.525l-19.485-16.931a2.144,2.144,0,0,0-3.021.205h0a2.144,2.144,0,0,0,.205,3.021l19.485,16.931a2.144,2.144,0,0,0,3.021-.205h0A2.144,2.144,0,0,0,240.08,244.525Z" transform="translate(11.536 -111.306)" fill="#470b1b"/>
      <path id="Path_4094" data-name="Path 4094" d="M217.717,281.492l-15.756-13.7a2.76,2.76,0,0,1-.3-3.729l26.011-34.514A2.8,2.8,0,0,1,231.72,229l20.231,17.583a2.8,2.8,0,0,1,0,4.084l-30.505,30.6a2.76,2.76,0,0,1-3.729.224Z" transform="translate(-2.274 -110.178)" fill="#fff"/>
      <path id="Path_4095" data-name="Path 4095" d="M121.745,79.94,111.62,93.347l21.257,18.5,11.878-11.9Z" transform="translate(96.14 49.457)" fill="#ff7664"/>
      <rect id="Rectangle_285" data-name="Rectangle 285" width="35.913" height="6.862" rx="1.18" transform="translate(226.95 114.755) rotate(40.99)" fill="#ff7664"/>
      <ellipse id="Ellipse_122" data-name="Ellipse 122" cx="5.501" cy="5.221" rx="5.501" ry="5.221" transform="translate(216.485 145.949) rotate(-49.01)" fill="#ffbc01"/>
    </g>
  </g>
</svg>
