<svg xmlns="http://www.w3.org/2000/svg" width="335.06" height="313.088" viewBox="0 0 335.06 313.088">
  <g id="Group_771" data-name="Group 771" transform="translate(-59.228 -20.33)">
    <path id="Path_3998" data-name="Path 3998" d="M366.646,246.431C339.093,258.6,322.79,280.3,309.588,309.574c0,.115-.115.115-.115.23a2.512,2.512,0,0,1-.344.574,25.71,25.71,0,0,1-11.251,12.284c-11.366,6.2-27.094,4.363-38,1.722a102.111,102.111,0,0,1-12.514-3.789c-.23-.115-.459-.115-.689-.23-23.42-7.118-15.384,15.5-53.155,19.861a72.416,72.416,0,0,1-10.1.344h0c-19.287-.8-42.134-8.955-59.814-16.647-9.873-4.363-18.254-8.5-23.306-11.251a27.984,27.984,0,0,1-11.94-11.71c-10.218-18.828-2.755-43.167,3.559-57.4a31.657,31.657,0,0,0-1.148-27.668c-4.937-9.3-13.777-19.747-22.617-30.309s-9.184-39.493-8.84-45.578c11.366-190.348,279.9-91.615,319.046-45.348C406.254,127.607,394.429,234.032,366.646,246.431Z" transform="translate(0 -7.197)" fill="#ffd768"/>
    <path id="Path_3999" data-name="Path 3999" d="M79.473,187.852c20.18,8.913,32.12,24.8,41.79,46.246,0,.084.084.084.084.168a1.839,1.839,0,0,0,.252.42,18.83,18.83,0,0,0,8.24,9c8.324,4.541,19.844,3.2,27.832,1.261a74.782,74.782,0,0,0,9.165-2.775c.168-.084.336-.084.5-.168,17.153-5.213,11.267,11.351,38.931,14.546a53.039,53.039,0,0,0,7.4.252h0c14.126-.589,30.859-6.559,43.808-12.192,7.231-3.2,13.369-6.222,17.069-8.24a20.5,20.5,0,0,0,8.745-8.577c7.483-13.79,2.018-31.615-2.607-42.042a23.186,23.186,0,0,1,.841-20.264c3.616-6.811,10.09-14.462,16.564-22.2s6.727-28.925,6.474-33.381C296.24-29.5,99.569,42.807,70.9,76.693,50.464,100.825,59.124,178.771,79.473,187.852Z" transform="translate(65.059 2.594) rotate(11)" fill="#ffeebe"/>
    <g id="OBJECTS" transform="translate(147.193 92.779)">
      <path id="Path_90" data-name="Path 90" d="M474.245,215.7H327.429a9.169,9.169,0,0,0-9.169,9.169h0a9.169,9.169,0,0,0,9.169,9.169H474.245a9.169,9.169,0,0,0,9.169-9.169h0A9.169,9.169,0,0,0,474.245,215.7Z" transform="translate(-318.01 -63.518)" fill="#ed7d2b"/>
      <path id="Path_91" data-name="Path 91" d="M470.059,216.9H327.434a4.584,4.584,0,0,0-4.584,4.584h0a4.584,4.584,0,0,0,4.584,4.584H470.059a4.584,4.584,0,0,0,4.584-4.584h0a4.584,4.584,0,0,0-4.584-4.584Z" transform="translate(-315.92 -62.972)" fill="#f99746"/>
      <circle id="Ellipse_16" data-name="Ellipse 16" cx="5.443" cy="5.443" r="5.443" transform="translate(77.442 76.008)" fill="#ed7d2b"/>
      <path id="Path_92" data-name="Path 92" d="M467.891,237.82H326.43A70.527,70.527,0,0,1,346.951,188h0a70.73,70.73,0,0,1,120.795,45.887C467.861,235.186,467.891,236.5,467.891,237.82Z" transform="translate(-314.29 -85.638)" fill="#f99746"/>
      <path id="Path_93" data-name="Path 93" d="M467.891,231.287H326.43a70.527,70.527,0,0,1,20.521-49.817h0c-10.333,13.244,1.79,45.887,46.7,45.887h74.121C467.861,228.653,467.891,229.962,467.891,231.287Z" transform="translate(-314.29 -79.105)" fill="#ed7d2b"/>
      <path id="Path_94" data-name="Path 94" d="M375.456,166.154,374,143.436a1.458,1.458,0,0,1,2.911-.189,1.631,1.631,0,0,1,0,.189Z" transform="translate(-292.629 -97.132)" fill="#f99746"/>
      <path id="Path_95" data-name="Path 95" d="M365.767,165.532l-10.784-11.643a1.462,1.462,0,0,1,2.139-1.994l.16.218Z" transform="translate(-301.467 -92.784)" fill="#f99746"/>
      <path id="Path_96" data-name="Path 96" d="M387.8,165.523l8.485-13.389a1.462,1.462,0,1,1,2.474,1.557l-.16.218Z" transform="translate(-286.344 -92.775)" fill="#f99746"/>
      <g id="Group_775" data-name="Group 775" transform="translate(113.448 6.064)">
        <path id="Path_196" data-name="Path 196" d="M28.889,0A28.889,28.889,0,1,1,0,28.889,28.889,28.889,0,0,1,28.889,0Z" fill="#ffbc01"/>
        <path id="Path_97" data-name="Path 97" d="M414.858,148.106c0-10.057,5.472-9.052,8.659-13.506,2.911-4.177-.859-8.587-10.187-4.89-4.541,1.79-9.474-7.83,6.9-7.83,12.181,0,16.475,11.41,5.487,19.254C416.124,148.149,428.713,148.106,414.858,148.106Zm-.844,8.98c0-6.069,9.2-6.04,9.2,0s-9.271,6.069-9.271,0Z" transform="translate(-390.176 -112.304)" fill="#fff"/>
      </g>
      <g id="Group_776" data-name="Group 776" transform="translate(-11.155 113.102) rotate(-45)">
        <circle id="Ellipse_19" data-name="Ellipse 19" cx="7.592" cy="7.592" r="7.592" fill="#2b478b"/>
        <path id="Path_97-2" data-name="Path 97" d="M1.561,6.892C1.561,4.249,3,4.513,3.837,3.343c.765-1.1-.226-2.257-2.677-1.285C-.034,2.528-1.331,0,2.972,0c3.2,0,4.33,3,1.442,5.06C1.894,6.9,5.2,6.892,1.561,6.892Zm-.222,2.36a1.209,1.209,0,0,1,2.417,0,1.218,1.218,0,0,1-2.436,0Z" transform="translate(4.926 2.517)" fill="#fff"/>
      </g>
      <g id="Group_771-2" data-name="Group 771" transform="translate(143.751 85.21)">
        <path id="Path_112" data-name="Path 112" d="M13.477,0A13.477,13.477,0,1,1,0,13.477,13.477,13.477,0,0,1,13.477,0Z" transform="translate(0)" fill="#fff"/>
        <g id="Group_1096" data-name="Group 1096">
          <path id="Path_98" data-name="Path 98" d="M378.426,132.032a8.936,8.936,0,1,1,8.936-8.936A8.936,8.936,0,0,1,378.426,132.032Zm0-17.319a8.4,8.4,0,1,0,8.4,8.4A8.4,8.4,0,0,0,378.426,114.713Z" transform="translate(-364.964 -109.619)" fill="#ffbc01"/>
          <path id="Path_99" data-name="Path 99" d="M372.714,116.513a7.437,7.437,0,0,1,3.158-1.31.684.684,0,0,1,.8.655v4.133a.669.669,0,0,1-1.15.48l-2.911-2.911a.684.684,0,0,1,.1-1.048Z" transform="translate(-363.633 -109.149)" fill="#ffbc01"/>
          <path id="Path_100" data-name="Path 100" d="M370.533,120.539a7.438,7.438,0,0,1,1.31-3.158.684.684,0,0,1,1.033-.1l2.911,2.911a.669.669,0,0,1-.48,1.15h-4.09a.684.684,0,0,1-.684-.8Z" transform="translate(-364.493 -108.285)" fill="#ffbc01"/>
          <path id="Path_101" data-name="Path 101" d="M376.72,115.2a7.437,7.437,0,0,1,3.158,1.31.684.684,0,0,1,.1,1.033l-2.911,2.911a.669.669,0,0,1-1.15-.48v-4.133a.684.684,0,0,1,.8-.64Z" transform="translate(-362.036 -109.149)" fill="#ffbc01"/>
          <path id="Path_102" data-name="Path 102" d="M377.184,120.2l2.911-2.911a.684.684,0,0,1,1.033.1,7.452,7.452,0,0,1,1.31,3.158.684.684,0,0,1-.655.8h-4.133a.669.669,0,0,1-.466-1.15Z" transform="translate(-361.553 -108.281)" fill="#ffbc01"/>
          <path id="Path_103" data-name="Path 103" d="M377.07,121.854l2.911,2.911a.684.684,0,0,1-.1,1.033,7.437,7.437,0,0,1-3.158,1.31.684.684,0,0,1-.8-.655v-4.133a.669.669,0,0,1,1.15-.466Z" transform="translate(-362.036 -106.208)" fill="#ffbc01"/>
          <path id="Path_104" data-name="Path 104" d="M377.649,120.59h4.133a.684.684,0,0,1,.655.8,7.451,7.451,0,0,1-1.31,3.158.684.684,0,0,1-1.033.1l-2.911-2.911a.669.669,0,0,1,.466-1.15Z" transform="translate(-361.553 -106.692)" fill="#ffbc01"/>
          <path id="Path_106" data-name="Path 106" d="M371.843,124.559a7.452,7.452,0,0,1-1.31-3.158.684.684,0,0,1,.655-.8h4.133a.669.669,0,0,1,.48,1.15l-2.911,2.911a.684.684,0,0,1-1.048-.1Z" transform="translate(-364.493 -106.687)" fill="#ffbc01"/>
          <circle id="Ellipse_21" data-name="Ellipse 21" cx="0.83" cy="0.83" r="0.83" transform="translate(12.647 12.647)" fill="#ffbc01"/>
          <path id="Path_105" data-name="Path 105" d="M375.869,127.117a7.437,7.437,0,0,1-3.158-1.31.684.684,0,0,1-.1-1.033l2.911-2.911a.669.669,0,0,1,1.15.48v4.177a.684.684,0,0,1-.8.6Z" transform="translate(-363.63 -106.204)" fill="#ffbc01"/>
        </g>
      </g>
      <path id="Path_195" data-name="Path 195" d="M11.148,0A11.148,11.148,0,1,1,0,11.148,11.148,11.148,0,0,1,11.148,0Z" transform="translate(61.989 9.542)" fill="#fff"/>
      <path id="Path_107" data-name="Path 107" d="M391.359,135.489a.625.625,0,0,1,0-.524,5.006,5.006,0,0,0,.262-1.863,5.152,5.152,0,0,0-5.094-4.832h0a5.108,5.108,0,0,0-5.065,5.094,5.005,5.005,0,0,0,.277,1.645.611.611,0,0,1-.087.495,1.354,1.354,0,0,0,1.455,2.023l2.052,5.152a1.455,1.455,0,0,0,2.62,0l2.067-5.167a1.353,1.353,0,0,0,.378,0,1.455,1.455,0,0,0,1.383-1.383,1.352,1.352,0,0,0-.247-.64Zm-2.067,1.092a.218.218,0,0,0-.189-.116.2.2,0,0,0-.175.131,1.645,1.645,0,0,1-3.114-.175.2.2,0,0,0-.16-.146h0a.2.2,0,0,0-.175.1.757.757,0,0,1-1.353-.087.189.189,0,0,0-.2-.116.2.2,0,0,0-.175.175.975.975,0,1,1-1.8-.626.975.975,0,0,0,.131-.83,4.582,4.582,0,0,1-.262-1.455,4.7,4.7,0,0,1,4.672-4.7h0a4.745,4.745,0,0,1,4.686,4.453,4.585,4.585,0,0,1-.233,1.717,1.018,1.018,0,0,0,.1.859.961.961,0,0,1,.131.495.975.975,0,0,1-1.863.393Z" transform="translate(-313.332 -114.857)" fill="#efb2ce"/>
      <path id="Path_111" data-name="Path 111" d="M13.477,0A13.477,13.477,0,1,1,0,13.477,13.477,13.477,0,0,1,13.477,0Z" transform="translate(4.789 52.235)" fill="#fff"/>
      <path id="Path_108" data-name="Path 108" d="M368.547,142.212a1.688,1.688,0,0,0-2.387,0h0a1.658,1.658,0,0,0-.2.247l-1.179-1.179a2.02,2.02,0,0,0,.32-.437c.771-1.455-.32-5.487-2.911-8.135a5.218,5.218,0,0,0-7.379,7.379c2.649,2.649,6.636,3.74,8.135,2.911a2.038,2.038,0,0,0,.437-.32l.946.946a.553.553,0,0,1,.145.6,1.543,1.543,0,0,0,2.5,1.732,1.456,1.456,0,0,0,.335-.713,2.028,2.028,0,0,1,0-.247,1.366,1.366,0,0,1,.306,0,1.66,1.66,0,0,0,.9-.364,1.688,1.688,0,0,0,.029-2.416Zm-.99,2.314a.975.975,0,0,0-.524.189.945.945,0,0,0-.189.451,1.15,1.15,0,0,1-.2.509,1.106,1.106,0,0,1-1.776-1.237.989.989,0,0,0-.233-1.092l-.961-.961c.175-.233.291-.422.335-.48s.247-.16.48-.335l1.455,1.455a.218.218,0,0,0,.364,0,1.237,1.237,0,1,1,2.008,1.368,1.339,1.339,0,0,1-.757.131Z" transform="translate(-342.96 -72.876)" fill="#ffbc01"/>
      <path id="Path_109" data-name="Path 109" d="M338.988,141.893c14.728-12.458,4.977-19.167,0-13.739a1.121,1.121,0,0,1-1.645,0c-4.9-5.414-14.655,1.281,0,13.739a1.179,1.179,0,0,0,1.645,0Z" transform="translate(-312.847 -104.248)" fill="#d60664"/>
      <path id="Path_110" data-name="Path 110" d="M403.087,170.067c8.266-7,2.794-10.755,0-7.713a.626.626,0,0,1-.917,0c-2.751-3.042-8.223.728,0,7.713A.655.655,0,0,0,403.087,170.067Z" transform="translate(-281.78 -88.295)" fill="#d60664"/>
    </g>
  </g>
</svg>
